<?xml version="1.0" encoding="UTF-8" standalone="no"?>
<!DOCTYPE svg PUBLIC "-//W3C//DTD SVG 1.1//EN" "http://www.w3.org/Graphics/SVG/1.1/DTD/svg11.dtd">
<svg width="100%" height="100%" viewBox="0 0 1986 2166" version="1.1" xmlns="http://www.w3.org/2000/svg" xmlns:xlink="http://www.w3.org/1999/xlink" xml:space="preserve" xmlns:serif="http://www.serif.com/" style="fill-rule:evenodd;clip-rule:evenodd;stroke-miterlimit:10;">
    <g transform="matrix(1,0,0,-1,0,664.46)">
        <path d="M901.512,358.612L901.512,308.862C901.512,306.991 903.828,305.48 906.676,305.48L916.996,305.48C919.844,305.48 922.156,306.991 922.156,308.862L922.156,358.98" style="fill:rgb(104,162,183);"/>
    </g>
    <g transform="matrix(1,0,0,-1,0,425.207)">
        <path d="M922.156,119.727L922.156,302.469C922.156,304.328 919.844,305.848 916.996,305.848L906.676,305.848C903.828,305.848 901.512,304.328 901.512,302.469L901.512,119.359" style="fill:rgb(239,106,92);"/>
    </g>
    <g transform="matrix(1,0,0,-1,0,472.879)">
        <path d="M170.98,354.332C168.203,354.969 165.609,354.012 165.188,352.199L112.664,125.34C112.242,123.52 114.156,121.52 116.93,120.879L126.984,118.551C129.758,117.91 132.355,118.859 132.777,120.68L185.301,347.539C185.723,349.359 183.809,351.359 181.035,352L170.98,354.332Z" style="fill:rgb(104,162,183);"/>
    </g>
    <g transform="matrix(1,0,0,-1,0,472.879)">
        <path d="M130.973,354.332C133.75,354.969 136.344,354.012 136.766,352.199L189.289,125.34C189.711,123.52 187.797,121.52 185.023,120.879L174.969,118.551C172.191,117.91 169.598,118.859 169.176,120.68L116.652,347.539C116.23,349.359 118.145,351.359 120.918,352L130.973,354.332Z" style="fill:rgb(104,162,183);"/>
    </g>
    <g transform="matrix(1,0,0,-1,0,456.938)">
        <path d="M151.504,241.508C158.703,241.508 164.547,235.668 164.547,228.469C164.547,221.27 158.703,215.43 151.504,215.43C144.305,215.43 138.461,221.27 138.461,228.469C138.461,235.668 144.305,241.508 151.504,241.508Z" style="fill:rgb(235,235,235);"/>
    </g>
    <g transform="matrix(1,0,0,-1,0,546.656)">
        <path d="M1283.64,359.258L1283.64,190.406C1283.64,188.547 1281.32,187.027 1278.47,187.027L1268.15,187.027C1265.3,187.027 1262.99,188.547 1262.99,190.406L1262.99,359.629" style="fill:rgb(242,142,44);"/>
    </g>
    <g transform="matrix(1,0,0,-1,0,307.406)">
        <path d="M1262.99,120.379L1262.99,184.015C1262.99,185.886 1265.3,187.398 1268.15,187.398L1278.47,187.398C1281.32,187.398 1283.64,185.886 1283.64,184.015L1283.64,120.008" style="fill:rgb(177,122,162);"/>
    </g>
    <g transform="matrix(1,0,0,-1,0,472.879)">
        <path d="M267.109,354.332C264.332,354.969 261.738,354.012 261.316,352.199L208.793,125.34C208.371,123.52 210.285,121.52 213.059,120.879L223.113,118.551C225.891,117.91 228.484,118.859 228.906,120.68L281.43,347.539C281.852,349.359 279.938,351.359 277.164,352L267.109,354.332Z" style="fill:rgb(239,106,92);"/>
    </g>
    <g transform="matrix(1,0,0,-1,0,472.879)">
        <path d="M227.102,354.332C229.879,354.969 232.473,354.012 232.895,352.199L285.418,125.34C285.84,123.52 283.926,121.52 281.152,120.879L271.098,118.551C268.324,117.91 265.727,118.859 265.305,120.68L212.781,347.539C212.359,349.359 214.273,351.359 217.047,352L227.102,354.332Z" style="fill:rgb(239,106,92);"/>
    </g>
    <g transform="matrix(1,0,0,-1,0,456.938)">
        <path d="M247.633,241.508C254.832,241.508 260.676,235.668 260.676,228.469C260.676,221.27 254.832,215.43 247.633,215.43C240.434,215.43 234.59,221.27 234.59,228.469C234.59,235.668 240.434,241.508 247.633,241.508Z" style="fill:rgb(235,235,235);"/>
    </g>
    <g transform="matrix(1,0,0,-1,0,456.937)">
        <path d="M316.656,221.789L316.656,235.14L450.156,235.14L450.156,247.539L469.227,228.468L450.156,209.398L450.156,221.789L316.656,221.789Z"/>
    </g>
    <g transform="matrix(1,0,0,-1,0,456.937)">
        <path d="M678.426,221.789L678.426,235.14L811.926,235.14L811.926,247.539L830.996,228.468L811.926,209.398L811.926,221.789L678.426,221.789Z"/>
    </g>
    <g transform="matrix(1,0,0,-1,0,472.879)">
        <path d="M170.98,354.332C168.203,354.969 165.609,354.012 165.188,352.199L112.664,125.34C112.242,123.52 114.156,121.52 116.93,120.879L126.984,118.551C129.758,117.91 132.355,118.859 132.777,120.68L185.301,347.539C185.723,349.359 183.809,351.359 181.035,352L170.98,354.332Z" style="fill:rgb(104,162,183);"/>
    </g>
    <g transform="matrix(1,0,0,-1,0,456.938)">
        <path d="M151.504,241.508C158.703,241.508 164.547,235.668 164.547,228.469C164.547,221.27 158.703,215.43 151.504,215.43C144.305,215.43 138.461,221.27 138.461,228.469C138.461,235.668 144.305,241.508 151.504,241.508Z" style="fill:rgb(235,235,235);"/>
    </g>
    <g transform="matrix(1,0,0,-1,0,472.879)">
        <path d="M267.109,354.332C264.332,354.969 261.738,354.012 261.316,352.199L208.793,125.34C208.371,123.52 210.285,121.52 213.059,120.879L223.113,118.551C225.891,117.91 228.484,118.859 228.906,120.68L281.43,347.539C281.852,349.359 279.938,351.359 277.164,352L267.109,354.332Z" style="fill:rgb(239,106,92);"/>
    </g>
    <g transform="matrix(1,0,0,-1,0,456.938)">
        <path d="M247.633,241.508C254.832,241.508 260.676,235.668 260.676,228.469C260.676,221.27 254.832,215.43 247.633,215.43C240.434,215.43 234.59,221.27 234.59,228.469C234.59,235.668 240.434,241.508 247.633,241.508Z" style="fill:rgb(235,235,235);"/>
    </g>
    <g transform="matrix(1,0,0,-1,0,456.937)">
        <path d="M316.656,221.789L316.656,235.14L450.156,235.14L450.156,247.539L469.227,228.468L450.156,209.398L450.156,221.789L316.656,221.789Z"/>
    </g>
    <g transform="matrix(1,0,0,-1,0,1177.41)">
        <path d="M678.426,582.031L678.426,595.383L811.926,595.383L811.926,607.777L830.996,588.707L811.926,569.637L811.926,582.031L678.426,582.031Z"/>
    </g>
    <g transform="matrix(1,0,0,-1,0,1193.06)">
        <path d="M170.98,714.418C168.203,715.059 165.609,714.11 165.188,712.289L112.664,485.426C112.242,483.61 114.156,481.614 116.93,480.973L126.984,478.645C129.758,478 132.355,478.954 132.777,480.77L185.301,707.629C185.723,709.45 183.809,711.45 181.035,712.09L170.98,714.418Z" style="fill:rgb(104,162,183);"/>
    </g>
    <g transform="matrix(1,0,0,-1,0,1193.06)">
        <path d="M130.973,714.418C133.75,715.059 136.344,714.11 136.766,712.289L189.289,485.426C189.711,483.61 187.797,481.614 185.023,480.973L174.969,478.645C172.191,478 169.598,478.954 169.176,480.77L116.652,707.629C116.23,709.45 118.145,711.45 120.918,712.09L130.973,714.418Z" style="fill:rgb(104,162,183);"/>
    </g>
    <g transform="matrix(1,0,0,-1,0,1177.41)">
        <path d="M151.504,601.75C158.703,601.75 164.547,595.906 164.547,588.707C164.547,581.508 158.703,575.664 151.504,575.664C144.305,575.664 138.461,581.508 138.461,588.707C138.461,595.906 144.305,601.75 151.504,601.75Z" style="fill:rgb(235,235,235);"/>
    </g>
    <g transform="matrix(1,0,0,-1,0,1193.06)">
        <path d="M267.109,714.418C264.332,715.059 261.738,714.11 261.316,712.289L208.793,485.426C208.371,483.61 210.285,481.614 213.059,480.973L223.113,478.645C225.891,478 228.484,478.954 228.906,480.77L281.43,707.629C281.852,709.45 279.938,711.45 277.164,712.09L267.109,714.418Z" style="fill:rgb(239,106,92);"/>
    </g>
    <g transform="matrix(1,0,0,-1,0,1193.06)">
        <path d="M227.102,714.418C229.879,715.059 232.473,714.11 232.895,712.289L285.418,485.426C285.84,483.61 283.926,481.614 281.152,480.973L271.098,478.645C268.324,478 265.727,478.954 265.305,480.77L212.781,707.629C212.359,709.45 214.273,711.45 217.047,712.09L227.102,714.418Z" style="fill:rgb(239,106,92);"/>
    </g>
    <g transform="matrix(1,0,0,-1,0,1177.41)">
        <path d="M247.633,601.75C254.832,601.75 260.676,595.906 260.676,588.707C260.676,581.508 254.832,575.664 247.633,575.664C240.434,575.664 234.59,581.508 234.59,588.707C234.59,595.906 240.434,601.75 247.633,601.75Z" style="fill:rgb(235,235,235);"/>
    </g>
    <g transform="matrix(1,0,0,-1,0,1177.41)">
        <path d="M316.656,582.031L316.656,595.383L450.156,595.383L450.156,607.777L469.227,588.707L450.156,569.637L450.156,582.031L316.656,582.031Z" style="fill:rgb(166,45,45);"/>
    </g>
    <g transform="matrix(1,0,0,-1,0,1193.06)">
        <path d="M631.805,714.418C629.031,715.059 626.434,714.11 626.012,712.289L573.488,485.426C573.066,483.61 574.98,481.614 577.754,480.973L587.809,478.645C590.586,478 593.18,478.954 593.602,480.77L646.125,707.629C646.547,709.45 644.633,711.45 641.859,712.09L631.805,714.418Z" style="fill:rgb(239,106,92);"/>
    </g>
    <g transform="matrix(1,0,0,-1,0,1374.38)">
        <path d="M637.762,715.059L650.113,666.746C650.535,664.93 648.621,662.934 645.848,662.293L635.793,659.965C633.02,659.32 630.422,660.274 630,662.09L617.871,710.602" style="fill:rgb(104,162,183);"/>
    </g>
    <g transform="matrix(1,0,0,-1,0,1141.78)">
        <path d="M617.871,478L577.477,656.347C577.055,658.168 578.969,660.168 581.746,660.808L591.797,663.136C594.574,663.777 597.168,662.828 597.59,661.007L637.762,482.457" style="fill:rgb(239,106,92);"/>
    </g>
    <g transform="matrix(1,0,0,-1,0,1177.41)">
        <path d="M612.328,601.75C619.527,601.75 625.375,595.906 625.375,588.707C625.375,581.508 619.527,575.664 612.328,575.664C605.129,575.664 599.285,581.508 599.285,588.707C599.285,595.906 605.129,601.75 612.328,601.75Z" style="fill:rgb(235,235,235);"/>
    </g>
    <g transform="matrix(1,0,0,-1,0,472.879)">
        <path d="M589.059,354.332C586.285,354.969 583.688,354.012 583.266,352.199L530.742,125.34C530.32,123.52 532.234,121.52 535.008,120.879L545.062,118.551C547.84,117.91 550.434,118.859 550.855,120.68L603.379,347.539C603.801,349.359 601.887,351.359 599.113,352L589.059,354.332Z" style="fill:rgb(239,106,92);"/>
    </g>
    <g transform="matrix(1,0,0,-1,0,654.199)">
        <path d="M595.016,354.969L607.367,306.66C607.789,304.84 605.875,302.84 603.102,302.199L593.047,299.871C590.273,299.23 587.676,300.179 587.254,302L575.125,350.511" style="fill:rgb(104,162,183);"/>
    </g>
    <g transform="matrix(1,0,0,-1,0,421.598)">
        <path d="M575.125,117.91L534.73,296.258C534.309,298.078 536.223,300.078 539,300.719L549.051,303.051C551.828,303.688 554.422,302.731 554.844,300.918L595.016,122.368" style="fill:rgb(239,106,92);"/>
    </g>
    <g transform="matrix(1,0,0,-1,0,456.938)">
        <path d="M569.582,241.508C576.781,241.508 582.629,235.668 582.629,228.469C582.629,221.27 576.781,215.43 569.582,215.43C562.383,215.43 556.539,221.27 556.539,228.469C556.539,235.668 562.383,241.508 569.582,241.508Z" style="fill:rgb(235,235,235);"/>
    </g>
    <g transform="matrix(1,0,0,-1,0,472.879)">
        <path d="M589.059,354.332C586.285,354.969 583.688,354.012 583.266,352.199L530.742,125.34C530.32,123.52 532.234,121.52 535.008,120.879L545.062,118.551C547.84,117.91 550.434,118.859 550.855,120.68L603.379,347.539C603.801,349.359 601.887,351.359 599.113,352L589.059,354.332Z" style="fill:rgb(239,106,92);"/>
    </g>
    <g transform="matrix(1,0,0,-1,0,654.199)">
        <path d="M595.016,354.969L607.367,306.66C607.789,304.84 605.875,302.84 603.102,302.199L593.047,299.871C590.273,299.23 587.676,300.179 587.254,302L575.125,350.511" style="fill:rgb(104,162,183);"/>
    </g>
    <g transform="matrix(1,0,0,-1,0,456.938)">
        <path d="M569.582,241.508C576.781,241.508 582.629,235.668 582.629,228.469C582.629,221.27 576.781,215.43 569.582,215.43C562.383,215.43 556.539,221.27 556.539,228.469C556.539,235.668 562.383,241.508 569.582,241.508Z" style="fill:rgb(235,235,235);"/>
    </g>
    <g transform="matrix(1,0,0,-1,0,1193.06)">
        <path d="M537.027,714.418C534.25,715.059 531.656,714.11 531.234,712.289L478.711,485.426C478.289,483.61 480.203,481.614 482.977,480.973L493.031,478.645C495.805,478 498.402,478.954 498.824,480.77L551.348,707.629C551.766,709.45 549.855,711.45 547.082,712.09L537.027,714.418Z" style="fill:rgb(104,162,183);"/>
    </g>
    <g transform="matrix(1,0,0,-1,0,1374.38)">
        <path d="M542.984,715.059L555.336,666.746C555.758,664.93 553.844,662.934 551.07,662.293L541.016,659.965C538.238,659.32 535.645,660.274 535.223,662.09L523.094,710.602" style="fill:rgb(239,106,92);"/>
    </g>
    <g transform="matrix(1,0,0,-1,0,1141.78)">
        <path d="M523.094,478L482.699,656.347C482.277,658.168 484.191,660.168 486.965,660.808L497.02,663.136C499.797,663.777 502.391,662.828 502.812,661.007L542.984,482.457" style="fill:rgb(104,162,183);"/>
    </g>
    <g transform="matrix(1,0,0,-1,0,1177.41)">
        <path d="M517.551,601.75C524.75,601.75 530.594,595.906 530.594,588.707C530.594,581.508 524.75,575.664 517.551,575.664C510.352,575.664 504.508,581.508 504.508,588.707C504.508,595.906 510.352,601.75 517.551,601.75Z" style="fill:rgb(235,235,235);"/>
    </g>
    <g transform="matrix(1,0,0,-1,0,456.938)">
        <path d="M911.938,241.508C919.137,241.508 924.98,235.668 924.98,228.469C924.98,221.27 919.137,215.43 911.938,215.43C904.738,215.43 898.895,221.27 898.895,228.469C898.895,235.668 904.738,241.508 911.938,241.508Z" style="fill:rgb(235,235,235);"/>
    </g>
    <g transform="matrix(1,0,0,-1,0,1375.85)">
        <path d="M918.637,714.305L918.637,664.555C918.637,662.688 920.953,661.176 923.801,661.176L934.121,661.176C936.969,661.176 939.281,662.688 939.281,664.555L939.281,714.672" style="fill:rgb(104,162,183);"/>
    </g>
    <g transform="matrix(1,0,0,-1,0,1136.59)">
        <path d="M939.281,475.414L939.281,658.16C939.281,660.02 936.969,661.543 934.121,661.543L923.801,661.543C920.953,661.543 918.637,660.02 918.637,658.16L918.637,475.047" style="fill:rgb(239,106,92);"/>
    </g>
    <g transform="matrix(1,0,0,-1,0,1177.41)">
        <path d="M929.062,601.75C936.262,601.75 942.105,595.906 942.105,588.707C942.105,581.508 936.262,575.664 929.062,575.664C921.863,575.664 916.016,581.508 916.016,588.707C916.016,595.906 921.863,601.75 929.062,601.75Z" style="fill:rgb(235,235,235);"/>
    </g>
    <g transform="matrix(1,0,0,-1,0,664.46)">
        <path d="M1219.44,358.612L1219.44,308.862C1219.44,306.991 1221.76,305.48 1224.61,305.48L1234.93,305.48C1237.78,305.48 1240.09,306.991 1240.09,308.862L1240.09,358.98" style="fill:rgb(104,162,183);"/>
    </g>
    <g transform="matrix(1,0,0,-1,0,425.207)">
        <path d="M1240.09,119.727L1240.09,302.469C1240.09,304.328 1237.78,305.848 1234.93,305.848L1224.61,305.848C1221.76,305.848 1219.44,304.328 1219.44,302.469L1219.44,119.359" style="fill:rgb(239,106,92);"/>
    </g>
    <g transform="matrix(1,0,0,-1,0,456.938)">
        <path d="M1229.87,241.508C1237.07,241.508 1242.91,235.668 1242.91,228.469C1242.91,221.27 1237.07,215.43 1229.87,215.43C1222.67,215.43 1216.83,221.27 1216.83,228.469C1216.83,235.668 1222.67,241.508 1229.87,241.508Z" style="fill:rgb(235,235,235);"/>
    </g>
    <g transform="matrix(1,0,0,-1,0,456.938)">
        <path d="M1273.37,241.508C1280.57,241.508 1286.41,235.668 1286.41,228.469C1286.41,221.27 1280.57,215.43 1273.37,215.43C1266.17,215.43 1260.33,221.27 1260.33,228.469C1260.33,235.668 1266.17,241.508 1273.37,241.508Z" style="fill:rgb(235,235,235);"/>
    </g>
    <g transform="matrix(1,0,0,-1,0,546.656)">
        <path d="M1671.17,359.258L1671.17,190.406C1671.17,188.547 1668.86,187.027 1666.01,187.027L1655.69,187.027C1652.84,187.027 1650.53,188.547 1650.53,190.406L1650.53,359.629" style="fill:rgb(242,142,44);"/>
    </g>
    <g transform="matrix(1,0,0,-1,0,307.406)">
        <path d="M1650.53,120.379L1650.53,184.015C1650.53,185.886 1652.84,187.398 1655.69,187.398L1666.01,187.398C1668.86,187.398 1671.17,185.886 1671.17,184.015L1671.17,120.008" style="fill:rgb(177,122,162);"/>
    </g>
    <g transform="matrix(1,0,0,-1,0,664.46)">
        <path d="M1606.98,358.612L1606.98,308.862C1606.98,306.991 1609.3,305.48 1612.15,305.48L1622.47,305.48C1625.31,305.48 1627.63,306.991 1627.63,308.862L1627.63,358.98" style="fill:rgb(104,162,183);"/>
    </g>
    <g transform="matrix(1,0,0,-1,0,425.207)">
        <path d="M1627.63,119.727L1627.63,302.469C1627.63,304.328 1625.31,305.848 1622.47,305.848L1612.15,305.848C1609.3,305.848 1606.98,304.328 1606.98,302.469L1606.98,119.359" style="fill:rgb(239,106,92);"/>
    </g>
    <g transform="matrix(1,0,0,-1,0,456.938)">
        <path d="M1617.41,241.508C1624.61,241.508 1630.45,235.668 1630.45,228.469C1630.45,221.27 1624.61,215.43 1617.41,215.43C1610.21,215.43 1604.36,221.27 1604.36,228.469C1604.36,235.668 1610.21,241.508 1617.41,241.508Z" style="fill:rgb(235,235,235);"/>
    </g>
    <g transform="matrix(1,0,0,-1,0,456.938)">
        <path d="M1660.91,241.508C1668.11,241.508 1673.95,235.668 1673.95,228.469C1673.95,221.27 1668.11,215.43 1660.91,215.43C1653.71,215.43 1647.87,221.27 1647.87,228.469C1647.87,235.668 1653.71,241.508 1660.91,241.508Z" style="fill:rgb(235,235,235);"/>
    </g>
    <g transform="matrix(1,0,0,-1,0,456.937)">
        <path d="M994.332,221.789L994.332,235.14L1127.83,235.14L1127.83,247.539L1146.9,228.468L1127.83,209.398L1127.83,221.789L994.332,221.789Z"/>
    </g>
    <g transform="matrix(1,0,0,-1,0,2100.97)">
        <path d="M916.957,1076.87L916.957,1027.11C916.957,1025.25 919.273,1023.73 922.121,1023.73L932.441,1023.73C935.289,1023.73 937.602,1025.25 937.602,1027.11L937.602,1077.23" style="fill:rgb(104,162,183);"/>
    </g>
    <g transform="matrix(1,0,0,-1,0,1861.71)">
        <path d="M937.602,837.981L937.602,1020.72C937.602,1022.59 935.289,1024.1 932.441,1024.1L922.121,1024.1C919.273,1024.1 916.957,1022.59 916.957,1020.72L916.957,837.613" style="fill:rgb(239,106,92);"/>
    </g>
    <g transform="matrix(1,0,0,-1,0,1909.39)">
        <path d="M170.98,1072.58C168.203,1073.22 165.609,1072.27 165.188,1070.45L112.664,843.59C112.242,841.774 114.156,839.778 116.93,839.137L126.984,836.809C129.758,836.164 132.355,837.117 132.777,838.934L185.301,1065.8C185.723,1067.61 183.809,1069.61 181.035,1070.25L170.98,1072.58Z" style="fill:rgb(104,162,183);"/>
    </g>
    <g transform="matrix(1,0,0,-1,0,1909.39)">
        <path d="M130.973,1072.58C133.75,1073.22 136.344,1072.27 136.766,1070.45L189.289,843.59C189.711,841.774 187.797,839.778 185.023,839.137L174.969,836.809C172.191,836.164 169.598,837.117 169.176,838.934L116.652,1065.8C116.23,1067.61 118.145,1069.61 120.918,1070.25L130.973,1072.58Z" style="fill:rgb(104,162,183);"/>
    </g>
    <g transform="matrix(1,0,0,-1,0,1893.38)">
        <path d="M151.504,959.73C158.703,959.73 164.547,953.887 164.547,946.687C164.547,939.488 158.703,933.645 151.504,933.645C144.305,933.645 138.461,939.488 138.461,946.687C138.461,953.887 144.305,959.73 151.504,959.73Z" style="fill:rgb(235,235,235);"/>
    </g>
    <g transform="matrix(1,0,0,-1,0,1983.16)">
        <path d="M1310.49,1077.5L1310.49,908.66C1310.49,906.797 1308.18,905.281 1305.33,905.281L1295.01,905.281C1292.16,905.281 1289.85,906.797 1289.85,908.66L1289.85,1077.88" style="fill:rgb(242,142,44);"/>
    </g>
    <g transform="matrix(1,0,0,-1,0,1743.91)">
        <path d="M1289.85,838.633L1289.85,902.277C1289.85,904.141 1292.16,905.656 1295.01,905.656L1305.33,905.656C1308.18,905.656 1310.49,904.141 1310.49,902.277L1310.49,838.258" style="fill:rgb(177,122,162);"/>
    </g>
    <g transform="matrix(1,0,0,-1,0,1909.39)">
        <path d="M267.109,1072.58C264.332,1073.22 261.738,1072.27 261.316,1070.45L208.793,843.59C208.371,841.774 210.285,839.778 213.059,839.137L223.113,836.809C225.891,836.164 228.484,837.117 228.906,838.934L281.43,1065.8C281.852,1067.61 279.938,1069.61 277.164,1070.25L267.109,1072.58Z" style="fill:rgb(239,106,92);"/>
    </g>
    <g transform="matrix(1,0,0,-1,0,1909.39)">
        <path d="M227.102,1072.58C229.879,1073.22 232.473,1072.27 232.895,1070.45L285.418,843.59C285.84,841.774 283.926,839.778 281.152,839.137L271.098,836.809C268.324,836.164 265.727,837.117 265.305,838.934L212.781,1065.8C212.359,1067.61 214.273,1069.61 217.047,1070.25L227.102,1072.58Z" style="fill:rgb(239,106,92);"/>
    </g>
    <g transform="matrix(1,0,0,-1,0,1893.38)">
        <path d="M247.633,959.73C254.832,959.73 260.676,953.887 260.676,946.687C260.676,939.488 254.832,933.645 247.633,933.645C240.434,933.645 234.59,939.488 234.59,946.687C234.59,953.887 240.434,959.73 247.633,959.73Z" style="fill:rgb(235,235,235);"/>
    </g>
    <g transform="matrix(1,0,0,-1,0,1893.38)">
        <path d="M316.656,940.012L316.656,953.363L450.156,953.363L450.156,965.758L469.227,946.687L450.156,927.617L450.156,940.012L316.656,940.012Z"/>
    </g>
    <g transform="matrix(1,0,0,-1,0,1893.38)">
        <path d="M678.426,940.012L678.426,953.363L811.926,953.363L811.926,965.758L830.996,946.687L811.926,927.617L811.926,940.012L678.426,940.012Z" style="fill:rgb(166,45,45);"/>
    </g>
    <g transform="matrix(1,0,0,-1,0,1909.39)">
        <path d="M170.98,1072.58C168.203,1073.22 165.609,1072.27 165.188,1070.45L112.664,843.59C112.242,841.774 114.156,839.778 116.93,839.137L126.984,836.809C129.758,836.164 132.355,837.117 132.777,838.934L185.301,1065.8C185.723,1067.61 183.809,1069.61 181.035,1070.25L170.98,1072.58Z" style="fill:rgb(104,162,183);"/>
    </g>
    <g transform="matrix(1,0,0,-1,0,1893.38)">
        <path d="M151.504,959.73C158.703,959.73 164.547,953.887 164.547,946.687C164.547,939.488 158.703,933.645 151.504,933.645C144.305,933.645 138.461,939.488 138.461,946.687C138.461,953.887 144.305,959.73 151.504,959.73Z" style="fill:rgb(235,235,235);"/>
    </g>
    <g transform="matrix(1,0,0,-1,0,1909.39)">
        <path d="M267.109,1072.58C264.332,1073.22 261.738,1072.27 261.316,1070.45L208.793,843.59C208.371,841.774 210.285,839.778 213.059,839.137L223.113,836.809C225.891,836.164 228.484,837.117 228.906,838.934L281.43,1065.8C281.852,1067.61 279.938,1069.61 277.164,1070.25L267.109,1072.58Z" style="fill:rgb(239,106,92);"/>
    </g>
    <g transform="matrix(1,0,0,-1,0,1893.38)">
        <path d="M247.633,959.73C254.832,959.73 260.676,953.887 260.676,946.687C260.676,939.488 254.832,933.645 247.633,933.645C240.434,933.645 234.59,939.488 234.59,946.687C234.59,953.887 240.434,959.73 247.633,959.73Z" style="fill:rgb(235,235,235);"/>
    </g>
    <g transform="matrix(1,0,0,-1,0,1893.38)">
        <path d="M316.656,940.012L316.656,953.363L450.156,953.363L450.156,965.758L469.227,946.687L450.156,927.617L450.156,940.012L316.656,940.012Z"/>
    </g>
    <g transform="matrix(1,0,0,-1,0,1909.39)">
        <path d="M589.059,1072.58C586.285,1073.22 583.688,1072.27 583.266,1070.45L530.742,843.59C530.32,841.774 532.234,839.778 535.008,839.137L545.062,836.809C547.84,836.164 550.434,837.117 550.855,838.934L603.379,1065.8C603.801,1067.61 601.887,1069.61 599.113,1070.25L589.059,1072.58Z" style="fill:rgb(239,106,92);"/>
    </g>
    <g transform="matrix(1,0,0,-1,0,2090.7)">
        <path d="M595.016,1073.22L607.367,1024.91C607.789,1023.09 605.875,1021.09 603.102,1020.45L593.047,1018.12C590.273,1017.48 587.676,1018.43 587.254,1020.25L575.125,1068.76" style="fill:rgb(104,162,183);"/>
    </g>
    <g transform="matrix(1,0,0,-1,0,1858.11)">
        <path d="M575.125,836.164L534.73,1014.51C534.309,1016.33 536.223,1018.33 539,1018.97L549.051,1021.3C551.828,1021.94 554.422,1020.99 554.844,1019.17L595.016,840.625" style="fill:rgb(239,106,92);"/>
    </g>
    <g transform="matrix(1,0,0,-1,0,1893.38)">
        <path d="M569.582,959.73C576.781,959.73 582.629,953.887 582.629,946.687C582.629,939.488 576.781,933.645 569.582,933.645C562.383,933.645 556.539,939.488 556.539,946.687C556.539,953.887 562.383,959.73 569.582,959.73Z" style="fill:rgb(235,235,235);"/>
    </g>
    <g transform="matrix(1,0,0,-1,0,1909.39)">
        <path d="M589.059,1072.58C586.285,1073.22 583.688,1072.27 583.266,1070.45L530.742,843.59C530.32,841.774 532.234,839.778 535.008,839.137L545.062,836.809C547.84,836.164 550.434,837.117 550.855,838.934L603.379,1065.8C603.801,1067.61 601.887,1069.61 599.113,1070.25L589.059,1072.58Z" style="fill:rgb(239,106,92);"/>
    </g>
    <g transform="matrix(1,0,0,-1,0,2090.7)">
        <path d="M595.016,1073.22L607.367,1024.91C607.789,1023.09 605.875,1021.09 603.102,1020.45L593.047,1018.12C590.273,1017.48 587.676,1018.43 587.254,1020.25L575.125,1068.76" style="fill:rgb(104,162,183);"/>
    </g>
    <g transform="matrix(1,0,0,-1,0,1893.38)">
        <path d="M569.582,959.73C576.781,959.73 582.629,953.887 582.629,946.687C582.629,939.488 576.781,933.645 569.582,933.645C562.383,933.645 556.539,939.488 556.539,946.687C556.539,953.887 562.383,959.73 569.582,959.73Z" style="fill:rgb(235,235,235);"/>
    </g>
    <g transform="matrix(1,0,0,-1,0,1893.38)">
        <path d="M927.383,959.73C934.582,959.73 940.426,953.887 940.426,946.687C940.426,939.488 934.582,933.645 927.383,933.645C920.184,933.645 914.34,939.488 914.34,946.687C914.34,953.887 920.184,959.73 927.383,959.73Z" style="fill:rgb(235,235,235);"/>
    </g>
    <g transform="matrix(1,0,0,-1,0,2100.97)">
        <path d="M1246.3,1076.87L1246.3,1027.11C1246.3,1025.25 1248.61,1023.73 1251.46,1023.73L1261.78,1023.73C1264.63,1023.73 1266.95,1025.25 1266.95,1027.11L1266.95,1077.23" style="fill:rgb(104,162,183);"/>
    </g>
    <g transform="matrix(1,0,0,-1,0,1861.71)">
        <path d="M1266.95,837.981L1266.95,1020.72C1266.95,1022.59 1264.63,1024.1 1261.78,1024.1L1251.46,1024.1C1248.61,1024.1 1246.3,1022.59 1246.3,1020.72L1246.3,837.613" style="fill:rgb(239,106,92);"/>
    </g>
    <g transform="matrix(1,0,0,-1,0,1893.38)">
        <path d="M1256.73,959.73C1263.92,959.73 1269.77,953.887 1269.77,946.687C1269.77,939.488 1263.92,933.645 1256.73,933.645C1249.53,933.645 1243.68,939.488 1243.68,946.687C1243.68,953.887 1249.53,959.73 1256.73,959.73Z" style="fill:rgb(235,235,235);"/>
    </g>
    <g transform="matrix(1,0,0,-1,0,1893.38)">
        <path d="M1300.23,959.73C1307.43,959.73 1313.27,953.887 1313.27,946.687C1313.27,939.488 1307.43,933.645 1300.23,933.645C1293.03,933.645 1287.18,939.488 1287.18,946.687C1287.18,953.887 1293.03,959.73 1300.23,959.73Z" style="fill:rgb(235,235,235);"/>
    </g>
    <g transform="matrix(1,0,0,-1,0,1893.38)">
        <path d="M994.332,940.012L994.332,953.363L1127.83,953.363L1127.83,965.758L1146.9,946.687L1127.83,927.617L1127.83,940.012L994.332,940.012Z"/>
    </g>
    <g transform="matrix(1,0,0,-1,0,1266.13)">
        <path d="M1312.82,718.988L1312.82,550.145C1312.82,548.281 1310.5,546.77 1307.65,546.77L1297.34,546.77C1294.49,546.77 1292.17,548.281 1292.17,550.145L1292.17,719.359" style="fill:rgb(242,142,44);"/>
    </g>
    <g transform="matrix(1,0,0,-1,0,1026.88)">
        <path d="M1292.17,480.109L1292.17,543.762C1292.17,545.621 1294.49,547.141 1297.34,547.141L1307.65,547.141C1310.5,547.141 1312.82,545.621 1312.82,543.762L1312.82,479.738" style="fill:rgb(177,122,162);"/>
    </g>
    <g transform="matrix(1,0,0,-1,0,1383.93)">
        <path d="M1248.63,718.348L1248.63,668.598C1248.63,666.731 1250.94,665.219 1253.79,665.219L1264.11,665.219C1266.96,665.219 1269.27,666.731 1269.27,668.598L1269.27,718.715" style="fill:rgb(104,162,183);"/>
    </g>
    <g transform="matrix(1,0,0,-1,0,1144.68)">
        <path d="M1269.27,479.465L1269.27,662.215C1269.27,664.075 1266.96,665.586 1264.11,665.586L1253.79,665.586C1250.94,665.586 1248.63,664.075 1248.63,662.215L1248.63,479.098" style="fill:rgb(239,106,92);"/>
    </g>
    <g transform="matrix(1,0,0,-1,0,1177.41)">
        <path d="M1259.05,601.75C1266.25,601.75 1272.09,595.906 1272.09,588.707C1272.09,581.508 1266.25,575.664 1259.05,575.664C1251.85,575.664 1246.01,581.508 1246.01,588.707C1246.01,595.906 1251.85,601.75 1259.05,601.75Z" style="fill:rgb(235,235,235);"/>
    </g>
    <g transform="matrix(1,0,0,-1,0,1177.41)">
        <path d="M1302.55,601.75C1309.75,601.75 1315.6,595.906 1315.6,588.707C1315.6,581.508 1309.75,575.664 1302.55,575.664C1295.35,575.664 1289.51,581.508 1289.51,588.707C1289.51,595.906 1295.35,601.75 1302.55,601.75Z" style="fill:rgb(235,235,235);"/>
    </g>
    <g transform="matrix(1,0,0,-1,0,1177.41)">
        <path d="M994.332,582.027L994.332,595.379L1127.83,595.379L1127.83,607.777L1146.9,588.703L1127.83,569.633L1127.83,582.027L994.332,582.027Z"/>
    </g>
    <g transform="matrix(1,0,0,-1,0,1190.38)">
        <path d="M880.824,715C877.973,715 875.66,713.488 875.66,711.621L875.66,478.758C875.66,476.891 877.973,475.379 880.824,475.379L891.141,475.379C893.992,475.379 896.305,476.891 896.305,478.758L896.305,711.621C896.305,713.488 893.992,715 891.141,715L880.824,715Z" style="fill:rgb(104,162,183);"/>
    </g>
    <g transform="matrix(1,0,0,-1,0,1177.41)">
        <path d="M885.844,601.75C893.043,601.75 898.887,595.906 898.887,588.707C898.887,581.508 893.043,575.664 885.844,575.664C878.648,575.664 872.801,581.508 872.801,588.707C872.801,595.906 878.648,601.75 885.844,601.75Z" style="fill:rgb(235,235,235);"/>
    </g>
    <g transform="matrix(1,0,0,-1,0,1199.14)">
        <path d="M1207.84,719.379C1204.99,719.379 1202.67,717.867 1202.67,715.996L1202.67,483.137C1202.67,481.27 1204.99,479.758 1207.84,479.758L1218.16,479.758C1221.01,479.758 1223.32,481.27 1223.32,483.137L1223.32,715.996C1223.32,717.867 1221.01,719.379 1218.16,719.379L1207.84,719.379Z" style="fill:rgb(104,162,183);"/>
    </g>
    <g transform="matrix(1,0,0,-1,0,1177.41)">
        <path d="M1212.86,601.75C1220.06,601.75 1225.9,595.906 1225.9,588.707C1225.9,581.508 1220.06,575.664 1212.86,575.664C1205.66,575.664 1199.82,581.508 1199.82,588.707C1199.82,595.906 1205.66,601.75 1212.86,601.75Z" style="fill:rgb(235,235,235);"/>
    </g>
    <g transform="matrix(1,0,0,-1,0,1266.13)">
        <path d="M1702.52,718.988L1702.52,550.145C1702.52,548.281 1700.2,546.77 1697.35,546.77L1687.03,546.77C1684.18,546.77 1681.87,548.281 1681.87,550.145L1681.87,719.359" style="fill:rgb(242,142,44);"/>
    </g>
    <g transform="matrix(1,0,0,-1,0,1026.88)">
        <path d="M1681.87,480.109L1681.87,543.762C1681.87,545.621 1684.18,547.141 1687.03,547.141L1697.35,547.141C1700.2,547.141 1702.52,545.621 1702.52,543.762L1702.52,479.738" style="fill:rgb(177,122,162);"/>
    </g>
    <g transform="matrix(1,0,0,-1,0,1383.93)">
        <path d="M1636.16,718.348L1636.16,668.598C1636.16,666.731 1638.48,665.219 1641.33,665.219L1651.65,665.219C1654.5,665.219 1656.81,666.731 1656.81,668.598L1656.81,718.715" style="fill:rgb(104,162,183);"/>
    </g>
    <g transform="matrix(1,0,0,-1,0,1144.68)">
        <path d="M1656.81,479.465L1656.81,662.215C1656.81,664.075 1654.5,665.586 1651.65,665.586L1641.33,665.586C1638.48,665.586 1636.16,664.075 1636.16,662.215L1636.16,479.098" style="fill:rgb(239,106,92);"/>
    </g>
    <g transform="matrix(1,0,0,-1,0,1177.41)">
        <path d="M1646.59,601.75C1653.79,601.75 1659.63,595.906 1659.63,588.707C1659.63,581.508 1653.79,575.664 1646.59,575.664C1639.39,575.664 1633.55,581.508 1633.55,588.707C1633.55,595.906 1639.39,601.75 1646.59,601.75Z" style="fill:rgb(235,235,235);"/>
    </g>
    <g transform="matrix(1,0,0,-1,0,1177.41)">
        <path d="M1692.25,601.75C1699.45,601.75 1705.29,595.906 1705.29,588.707C1705.29,581.508 1699.45,575.664 1692.25,575.664C1685.05,575.664 1679.21,581.508 1679.21,588.707C1679.21,595.906 1685.05,601.75 1692.25,601.75Z" style="fill:rgb(235,235,235);"/>
    </g>
    <g transform="matrix(1,0,0,-1,0,1199.14)">
        <path d="M1595.38,719.379C1592.53,719.379 1590.21,717.867 1590.21,715.996L1590.21,483.137C1590.21,481.27 1592.53,479.758 1595.38,479.758L1605.69,479.758C1608.54,479.758 1610.86,481.27 1610.86,483.137L1610.86,715.996C1610.86,717.867 1608.54,719.379 1605.69,719.379L1595.38,719.379Z" style="fill:rgb(104,162,183);"/>
    </g>
    <g transform="matrix(1,0,0,-1,0,1177.41)">
        <path d="M1600.4,601.75C1607.6,601.75 1613.44,595.906 1613.44,588.707C1613.44,581.508 1607.6,575.664 1600.4,575.664C1593.2,575.664 1587.35,581.508 1587.35,588.707C1587.35,595.906 1593.2,601.75 1600.4,601.75Z" style="fill:rgb(235,235,235);"/>
    </g>
    <g transform="matrix(1,0,0,-1,0,1915.95)">
        <path d="M880.824,1077.79C877.973,1077.79 875.66,1076.27 875.66,1074.41L875.66,841.543C875.66,839.676 877.973,838.164 880.824,838.164L891.141,838.164C893.992,838.164 896.305,839.676 896.305,841.543L896.305,1074.41C896.305,1076.27 893.992,1077.79 891.141,1077.79L880.824,1077.79Z" style="fill:rgb(239,106,92);"/>
    </g>
    <g transform="matrix(1,0,0,-1,0,1893.38)">
        <path d="M885.844,959.73C893.043,959.73 898.887,953.887 898.887,946.687C898.887,939.488 893.043,933.645 885.844,933.645C878.648,933.645 872.801,939.488 872.801,946.687C872.801,953.887 878.648,959.73 885.844,959.73Z" style="fill:rgb(235,235,235);"/>
    </g>
    <g transform="matrix(1,0,0,-1,0,1915.95)">
        <path d="M1207.92,1077.79C1205.07,1077.79 1202.75,1076.27 1202.75,1074.41L1202.75,841.543C1202.75,839.676 1205.07,838.164 1207.92,838.164L1218.24,838.164C1221.08,838.164 1223.4,839.676 1223.4,841.543L1223.4,1074.41C1223.4,1076.27 1221.08,1077.79 1218.24,1077.79L1207.92,1077.79Z" style="fill:rgb(239,106,92);"/>
    </g>
    <g transform="matrix(1,0,0,-1,0,1893.38)">
        <path d="M1212.94,959.73C1220.14,959.73 1225.98,953.887 1225.98,946.687C1225.98,939.488 1220.14,933.645 1212.94,933.645C1205.74,933.645 1199.89,939.488 1199.89,946.687C1199.89,953.887 1205.74,959.73 1212.94,959.73Z" style="fill:rgb(235,235,235);"/>
    </g>
    <g transform="matrix(1,0,0,-1,0,1983.16)">
        <path d="M1701.28,1077.5L1701.28,908.66C1701.28,906.797 1698.96,905.281 1696.11,905.281L1685.79,905.281C1682.94,905.281 1680.63,906.797 1680.63,908.66L1680.63,1077.88" style="fill:rgb(242,142,44);"/>
    </g>
    <g transform="matrix(1,0,0,-1,0,1743.91)">
        <path d="M1680.63,838.633L1680.63,902.277C1680.63,904.141 1682.94,905.656 1685.79,905.656L1696.11,905.656C1698.96,905.656 1701.28,904.141 1701.28,902.277L1701.28,838.258" style="fill:rgb(177,122,162);"/>
    </g>
    <g transform="matrix(1,0,0,-1,0,2100.97)">
        <path d="M1634.93,1076.87L1634.93,1027.11C1634.93,1025.25 1637.24,1023.73 1640.09,1023.73L1650.41,1023.73C1653.26,1023.73 1655.57,1025.25 1655.57,1027.11L1655.57,1077.23" style="fill:rgb(104,162,183);"/>
    </g>
    <g transform="matrix(1,0,0,-1,0,1861.71)">
        <path d="M1655.57,837.981L1655.57,1020.72C1655.57,1022.59 1653.26,1024.1 1650.41,1024.1L1640.09,1024.1C1637.24,1024.1 1634.93,1022.59 1634.93,1020.72L1634.93,837.613" style="fill:rgb(239,106,92);"/>
    </g>
    <g transform="matrix(1,0,0,-1,0,1893.38)">
        <path d="M1645.35,959.73C1652.55,959.73 1658.39,953.887 1658.39,946.687C1658.39,939.488 1652.55,933.645 1645.35,933.645C1638.15,933.645 1632.31,939.488 1632.31,946.687C1632.31,953.887 1638.15,959.73 1645.35,959.73Z" style="fill:rgb(235,235,235);"/>
    </g>
    <g transform="matrix(1,0,0,-1,0,1893.38)">
        <path d="M1691.01,959.73C1698.21,959.73 1704.06,953.887 1704.06,946.687C1704.06,939.488 1698.21,933.645 1691.01,933.645C1683.81,933.645 1677.97,939.488 1677.97,946.687C1677.97,953.887 1683.81,959.73 1691.01,959.73Z" style="fill:rgb(235,235,235);"/>
    </g>
    <g transform="matrix(1,0,0,-1,0,1915.95)">
        <path d="M1596.54,1077.79C1593.69,1077.79 1591.38,1076.27 1591.38,1074.41L1591.38,841.543C1591.38,839.676 1593.69,838.164 1596.54,838.164L1606.86,838.164C1609.71,838.164 1612.02,839.676 1612.02,841.543L1612.02,1074.41C1612.02,1076.27 1609.71,1077.79 1606.86,1077.79L1596.54,1077.79Z" style="fill:rgb(239,106,92);"/>
    </g>
    <g transform="matrix(1,0,0,-1,0,1893.38)">
        <path d="M1601.56,959.73C1608.76,959.73 1614.61,953.887 1614.61,946.687C1614.61,939.488 1608.76,933.645 1601.56,933.645C1594.36,933.645 1588.52,939.488 1588.52,946.687C1588.52,953.887 1594.36,959.73 1601.56,959.73Z" style="fill:rgb(235,235,235);"/>
    </g>
    <g transform="matrix(1,0,0,-1,0,2821.41)">
        <path d="M901.512,1437.09L901.512,1387.34C901.512,1385.47 903.828,1383.96 906.676,1383.96L916.996,1383.96C919.844,1383.96 922.156,1385.47 922.156,1387.34L922.156,1437.46" style="fill:rgb(104,162,183);"/>
    </g>
    <g transform="matrix(1,0,0,-1,0,2582.16)">
        <path d="M922.156,1198.2L922.156,1380.94C922.156,1382.81 919.844,1384.32 916.996,1384.32L906.676,1384.32C903.828,1384.32 901.512,1382.81 901.512,1380.94L901.512,1197.84" style="fill:rgb(239,106,92);"/>
    </g>
    <g transform="matrix(1,0,0,-1,0,2629.83)">
        <path d="M170.98,1432.8C168.203,1433.44 165.609,1432.49 165.188,1430.67L112.664,1203.81C112.242,1201.99 114.156,1200 116.93,1199.36L126.984,1197.03C129.758,1196.38 132.355,1197.34 132.777,1199.15L185.301,1426.02C185.723,1427.83 183.809,1429.83 181.035,1430.47L170.98,1432.8Z" style="fill:rgb(104,162,183);"/>
    </g>
    <g transform="matrix(1,0,0,-1,0,2629.83)">
        <path d="M130.973,1432.8C133.75,1433.44 136.344,1432.49 136.766,1430.67L189.289,1203.81C189.711,1201.99 187.797,1200 185.023,1199.36L174.969,1197.03C172.191,1196.38 169.598,1197.34 169.176,1199.15L116.652,1426.02C116.23,1427.83 118.145,1429.83 120.918,1430.47L130.973,1432.8Z" style="fill:rgb(104,162,183);"/>
    </g>
    <g transform="matrix(1,0,0,-1,0,2618.29)">
        <path d="M151.504,1322.19C158.703,1322.19 164.547,1316.35 164.547,1309.14C164.547,1301.95 158.703,1296.1 151.504,1296.1C144.305,1296.1 138.461,1301.95 138.461,1309.14C138.461,1316.35 144.305,1322.19 151.504,1322.19Z" style="fill:rgb(235,235,235);"/>
    </g>
    <g transform="matrix(1,0,0,-1,0,2703.61)">
        <path d="M1283.64,1437.73L1283.64,1268.88C1283.64,1267.02 1281.32,1265.5 1278.47,1265.5L1268.15,1265.5C1265.3,1265.5 1262.99,1267.02 1262.99,1268.88L1262.99,1438.1" style="fill:rgb(242,142,44);"/>
    </g>
    <g transform="matrix(1,0,0,-1,0,2464.36)">
        <path d="M1262.99,1198.86L1262.99,1262.5C1262.99,1264.37 1265.3,1265.88 1268.15,1265.88L1278.47,1265.88C1281.32,1265.88 1283.64,1264.37 1283.64,1262.5L1283.64,1198.48" style="fill:rgb(177,122,162);"/>
    </g>
    <g transform="matrix(1,0,0,-1,0,2629.83)">
        <path d="M267.109,1432.8C264.332,1433.44 261.738,1432.49 261.316,1430.67L208.793,1203.81C208.371,1201.99 210.285,1200 213.059,1199.36L223.113,1197.03C225.891,1196.38 228.484,1197.34 228.906,1199.15L281.43,1426.02C281.852,1427.83 279.938,1429.83 277.164,1430.47L267.109,1432.8Z" style="fill:rgb(239,106,92);"/>
    </g>
    <g transform="matrix(1,0,0,-1,0,2629.83)">
        <path d="M227.102,1432.8C229.879,1433.44 232.473,1432.49 232.895,1430.67L285.418,1203.81C285.84,1201.99 283.926,1200 281.152,1199.36L271.098,1197.03C268.324,1196.38 265.727,1197.34 265.305,1199.15L212.781,1426.02C212.359,1427.83 214.273,1429.83 217.047,1430.47L227.102,1432.8Z" style="fill:rgb(239,106,92);"/>
    </g>
    <g transform="matrix(1,0,0,-1,0,2618.29)">
        <path d="M247.633,1322.19C254.832,1322.19 260.676,1316.35 260.676,1309.14C260.676,1301.95 254.832,1296.1 247.633,1296.1C240.434,1296.1 234.59,1301.95 234.59,1309.14C234.59,1316.35 240.434,1322.19 247.633,1322.19Z" style="fill:rgb(235,235,235);"/>
    </g>
    <g transform="matrix(1,0,0,-1,0,2612.25)">
        <path d="M316.656,1299.45L316.656,1312.8L450.156,1312.8L450.156,1325.19L469.227,1306.12L450.156,1287.06L450.156,1299.45L316.656,1299.45Z"/>
    </g>
    <g transform="matrix(1,0,0,-1,0,2612.25)">
        <path d="M678.426,1299.45L678.426,1312.8L811.926,1312.8L811.926,1325.19L830.996,1306.12L811.926,1287.06L811.926,1299.45L678.426,1299.45Z"/>
    </g>
    <g transform="matrix(1,0,0,-1,0,2629.83)">
        <path d="M170.98,1432.8C168.203,1433.44 165.609,1432.49 165.188,1430.67L112.664,1203.81C112.242,1201.99 114.156,1200 116.93,1199.36L126.984,1197.03C129.758,1196.38 132.355,1197.34 132.777,1199.15L185.301,1426.02C185.723,1427.83 183.809,1429.83 181.035,1430.47L170.98,1432.8Z" style="fill:rgb(104,162,183);"/>
    </g>
    <g transform="matrix(1,0,0,-1,0,2618.29)">
        <path d="M151.504,1322.19C158.703,1322.19 164.547,1316.35 164.547,1309.14C164.547,1301.95 158.703,1296.1 151.504,1296.1C144.305,1296.1 138.461,1301.95 138.461,1309.14C138.461,1316.35 144.305,1322.19 151.504,1322.19Z" style="fill:rgb(235,235,235);"/>
    </g>
    <g transform="matrix(1,0,0,-1,0,2629.83)">
        <path d="M267.109,1432.8C264.332,1433.44 261.738,1432.49 261.316,1430.67L208.793,1203.81C208.371,1201.99 210.285,1200 213.059,1199.36L223.113,1197.03C225.891,1196.38 228.484,1197.34 228.906,1199.15L281.43,1426.02C281.852,1427.83 279.938,1429.83 277.164,1430.47L267.109,1432.8Z" style="fill:rgb(239,106,92);"/>
    </g>
    <g transform="matrix(1,0,0,-1,0,2618.29)">
        <path d="M247.633,1322.19C254.832,1322.19 260.676,1316.35 260.676,1309.14C260.676,1301.95 254.832,1296.1 247.633,1296.1C240.434,1296.1 234.59,1301.95 234.59,1309.14C234.59,1316.35 240.434,1322.19 247.633,1322.19Z" style="fill:rgb(235,235,235);"/>
    </g>
    <g transform="matrix(1,0,0,-1,0,2612.25)">
        <path d="M316.656,1299.45L316.656,1312.8L450.156,1312.8L450.156,1325.19L469.227,1306.12L450.156,1287.06L450.156,1299.45L316.656,1299.45Z"/>
    </g>
    <g transform="matrix(1,0,0,-1,0,2629.83)">
        <path d="M589.059,1432.8C586.285,1433.44 583.688,1432.49 583.266,1430.67L530.742,1203.81C530.32,1201.99 532.234,1200 535.008,1199.36L545.062,1197.03C547.84,1196.38 550.434,1197.34 550.855,1199.15L603.379,1426.02C603.801,1427.83 601.887,1429.83 599.113,1430.47L589.059,1432.8Z" style="fill:rgb(239,106,92);"/>
    </g>
    <g transform="matrix(1,0,0,-1,0,2811.15)">
        <path d="M595.016,1433.44L607.367,1385.13C607.789,1383.31 605.875,1381.32 603.102,1380.67L593.047,1378.35C590.273,1377.7 587.676,1378.66 587.254,1380.47L575.125,1428.98" style="fill:rgb(104,162,183);"/>
    </g>
    <g transform="matrix(1,0,0,-1,0,2578.55)">
        <path d="M575.125,1196.38L534.73,1374.74C534.309,1376.55 536.223,1378.55 539,1379.19L549.051,1381.52C551.828,1382.16 554.422,1381.21 554.844,1379.39L595.016,1200.84" style="fill:rgb(239,106,92);"/>
    </g>
    <g transform="matrix(1,0,0,-1,0,2618.29)">
        <path d="M569.582,1322.19C576.781,1322.19 582.629,1316.35 582.629,1309.14C582.629,1301.95 576.781,1296.1 569.582,1296.1C562.383,1296.1 556.539,1301.95 556.539,1309.14C556.539,1316.35 562.383,1322.19 569.582,1322.19Z" style="fill:rgb(235,235,235);"/>
    </g>
    <g transform="matrix(1,0,0,-1,0,2811.15)">
        <path d="M595.016,1433.44L607.367,1385.13C607.789,1383.31 605.875,1381.32 603.102,1380.67L593.047,1378.35C590.273,1377.7 587.676,1378.66 587.254,1380.47L575.125,1428.98" style="fill:rgb(104,162,183);"/>
    </g>
    <g transform="matrix(1,0,0,-1,0,2578.55)">
        <path d="M575.125,1196.38L534.73,1374.74C534.309,1376.55 536.223,1378.55 539,1379.19L549.051,1381.52C551.828,1382.16 554.422,1381.21 554.844,1379.39L595.016,1200.84" style="fill:rgb(239,106,92);"/>
    </g>
    <g transform="matrix(1,0,0,-1,0,2618.29)">
        <path d="M569.582,1322.19C576.781,1322.19 582.629,1316.35 582.629,1309.14C582.629,1301.95 576.781,1296.1 569.582,1296.1C562.383,1296.1 556.539,1301.95 556.539,1309.14C556.539,1316.35 562.383,1322.19 569.582,1322.19Z" style="fill:rgb(235,235,235);"/>
    </g>
    <g transform="matrix(1,0,0,-1,0,2618.29)">
        <path d="M911.938,1322.19C919.137,1322.19 924.98,1316.35 924.98,1309.14C924.98,1301.95 919.137,1296.1 911.938,1296.1C904.738,1296.1 898.895,1301.95 898.895,1309.14C898.895,1316.35 904.738,1322.19 911.938,1322.19Z" style="fill:rgb(235,235,235);"/>
    </g>
    <g transform="matrix(1,0,0,-1,0,2821.41)">
        <path d="M1219.44,1437.09L1219.44,1387.34C1219.44,1385.47 1221.76,1383.96 1224.61,1383.96L1234.93,1383.96C1237.78,1383.96 1240.09,1385.47 1240.09,1387.34L1240.09,1437.46" style="fill:rgb(104,162,183);"/>
    </g>
    <g transform="matrix(1,0,0,-1,0,2582.16)">
        <path d="M1240.09,1198.2L1240.09,1380.94C1240.09,1382.81 1237.78,1384.32 1234.93,1384.32L1224.61,1384.32C1221.76,1384.32 1219.44,1382.81 1219.44,1380.94L1219.44,1197.84" style="fill:rgb(239,106,92);"/>
    </g>
    <g transform="matrix(1,0,0,-1,0,2618.29)">
        <path d="M1229.87,1322.19C1237.07,1322.19 1242.91,1316.35 1242.91,1309.14C1242.91,1301.95 1237.07,1296.1 1229.87,1296.1C1222.67,1296.1 1216.83,1301.95 1216.83,1309.14C1216.83,1316.35 1222.67,1322.19 1229.87,1322.19Z" style="fill:rgb(235,235,235);"/>
    </g>
    <g transform="matrix(1,0,0,-1,0,2618.29)">
        <path d="M1273.37,1322.19C1280.57,1322.19 1286.41,1316.35 1286.41,1309.14C1286.41,1301.95 1280.57,1296.1 1273.37,1296.1C1266.17,1296.1 1260.33,1301.95 1260.33,1309.14C1260.33,1316.35 1266.17,1322.19 1273.37,1322.19Z" style="fill:rgb(235,235,235);"/>
    </g>
    <g transform="matrix(1,0,0,-1,0,2612.25)">
        <path d="M994.332,1299.45L994.332,1312.8L1127.83,1312.8L1127.83,1325.19L1146.9,1306.12L1127.83,1287.06L1127.83,1299.45L994.332,1299.45Z"/>
    </g>
    <g transform="matrix(1,0,0,-1,0,2707.36)">
        <path d="M1705.56,1439.61L1705.56,1270.76C1705.56,1268.89 1703.25,1267.38 1700.4,1267.38L1690.08,1267.38C1687.23,1267.38 1684.92,1268.89 1684.92,1270.76L1684.92,1439.98" style="fill:rgb(242,142,44);"/>
    </g>
    <g transform="matrix(1,0,0,-1,0,2468.12)">
        <path d="M1684.92,1200.73L1684.92,1264.38C1684.92,1266.24 1687.23,1267.76 1690.08,1267.76L1700.4,1267.76C1703.25,1267.76 1705.56,1266.24 1705.56,1264.38L1705.56,1200.36" style="fill:rgb(177,122,162);"/>
    </g>
    <g transform="matrix(1,0,0,-1,0,2825.18)">
        <path d="M1639.21,1438.97L1639.21,1389.22C1639.21,1387.35 1641.53,1385.84 1644.37,1385.84L1654.69,1385.84C1657.54,1385.84 1659.86,1387.35 1659.86,1389.22L1659.86,1439.34" style="fill:rgb(104,162,183);"/>
    </g>
    <g transform="matrix(1,0,0,-1,0,2585.92)">
        <path d="M1659.86,1200.08L1659.86,1382.83C1659.86,1384.69 1657.54,1386.21 1654.69,1386.21L1644.37,1386.21C1641.53,1386.21 1639.21,1384.69 1639.21,1382.83L1639.21,1199.71" style="fill:rgb(239,106,92);"/>
    </g>
    <g transform="matrix(1,0,0,-1,0,2622.05)">
        <path d="M1649.64,1324.07C1656.83,1324.07 1662.68,1318.23 1662.68,1311.03C1662.68,1303.83 1656.83,1297.98 1649.64,1297.98C1642.44,1297.98 1636.59,1303.83 1636.59,1311.03C1636.59,1318.23 1642.44,1324.07 1649.64,1324.07Z" style="fill:rgb(235,235,235);"/>
    </g>
    <g transform="matrix(1,0,0,-1,0,2825.18)">
        <path d="M1590.58,1438.97L1590.58,1389.22C1590.58,1387.35 1592.9,1385.84 1595.75,1385.84L1606.07,1385.84C1608.91,1385.84 1611.23,1387.35 1611.23,1389.22L1611.23,1439.34" style="fill:rgb(104,162,183);"/>
    </g>
    <g transform="matrix(1,0,0,-1,0,2585.92)">
        <path d="M1611.23,1200.08L1611.23,1382.83C1611.23,1384.69 1608.91,1386.21 1606.07,1386.21L1595.75,1386.21C1592.9,1386.21 1590.58,1384.69 1590.58,1382.83L1590.58,1199.71" style="fill:rgb(239,106,92);"/>
    </g>
    <g transform="matrix(1,0,0,-1,0,2622.05)">
        <path d="M1601.01,1324.07C1608.21,1324.07 1614.05,1318.23 1614.05,1311.03C1614.05,1303.83 1608.21,1297.98 1601.01,1297.98C1593.81,1297.98 1587.96,1303.83 1587.96,1311.03C1587.96,1318.23 1593.81,1324.07 1601.01,1324.07Z" style="fill:rgb(235,235,235);"/>
    </g>
    <g transform="matrix(1,0,0,-1,0,2622.05)">
        <path d="M1695.3,1324.07C1702.5,1324.07 1708.34,1318.23 1708.34,1311.03C1708.34,1303.83 1702.5,1297.98 1695.3,1297.98C1688.1,1297.98 1682.25,1303.83 1682.25,1311.03C1682.25,1318.23 1688.1,1324.07 1695.3,1324.07Z" style="fill:rgb(235,235,235);"/>
    </g>
    <g transform="matrix(1,0,0,-1,0,2612.25)">
        <path d="M1367.79,1299.45L1367.79,1312.8L1501.29,1312.8L1501.29,1325.19L1520.36,1306.12L1501.29,1287.06L1501.29,1299.45L1367.79,1299.45Z" style="fill:rgb(166,45,45);"/>
    </g>
    <text x="324.937px" y="77.432px" style="font-family:'Arial-ItalicMT', 'Arial', sans-serif;font-style:italic;font-size:34px;">meiosis I</text>
    <g transform="matrix(1,0,0,1,0,-12.2439)">
        <text x="273.066px" y="566.709px" style="font-family:'ArialMT', 'Arial', sans-serif;font-size:34px;fill:rgb(166,45,45);">nondisjunction</text>
    </g>
    <text x="675.264px" y="77.432px" style="font-family:'Arial-ItalicMT', 'Arial', sans-serif;font-style:italic;font-size:34px;">meiosis II</text>
    <text x="988.455px" y="77.64px" style="font-family:'Arial-ItalicMT', 'Arial', sans-serif;font-style:italic;font-size:34px;">fertilizat<tspan x="1105.49px " y="77.64px ">i</tspan>on</text>
    <g transform="matrix(1,0,0,1,-2,0)">
        <text x="1750.23px" y="548.163px" style="font-family:'ArialMT', 'Arial', sans-serif;font-size:34px;">three unique</text>
        <text x="1750.23px" y="583.273px" style="font-family:'ArialMT', 'Arial', sans-serif;font-size:34px;">homologs in</text>
        <text x="1750.23px" y="618.383px" style="font-family:'ArialMT', 'Arial', sans-serif;font-size:34px;">centromere-</text>
        <text x="1750.23px" y="653.493px" style="font-family:'ArialMT', 'Arial', sans-serif;font-size:34px;">proximal region</text>
    </g>
    <g transform="matrix(1,0,0,1,-2,0)">
        <text x="1750.23px" y="905.719px" style="font-family:'ArialMT', 'Arial', sans-serif;font-size:34px;">three unique</text>
        <text x="1750.23px" y="940.829px" style="font-family:'ArialMT', 'Arial', sans-serif;font-size:34px;">homologs in</text>
        <text x="1750.23px" y="975.939px" style="font-family:'ArialMT', 'Arial', sans-serif;font-size:34px;">centromere-</text>
        <text x="1750.23px" y="1011.05px" style="font-family:'ArialMT', 'Arial', sans-serif;font-size:34px;">distal region</text>
    </g>
    <g transform="matrix(1,0,0,1,-2,0)">
        <text x="1750.23px" y="1274.17px" style="font-family:'ArialMT', 'Arial', sans-serif;font-size:34px;">only two unique</text>
        <text x="1750.23px" y="1309.29px" style="font-family:'ArialMT', 'Arial', sans-serif;font-size:34px;">homologs</text>
        <text x="1750.23px" y="1344.39px" style="font-family:'ArialMT', 'Arial', sans-serif;font-size:34px;">chromosome-</text>
        <text x="1750.23px" y="1379.51px" style="font-family:'ArialMT', 'Arial', sans-serif;font-size:34px;">wide</text>
    </g>
    <text x="1383.89px" y="72.932px" style="font-family:'Arial-ItalicMT', 'Arial', sans-serif;font-style:italic;font-size:34px;">mitosis</text>
    <g transform="matrix(0,-1,1,0,2,16.0836)">
        <text x="-385.748px" y="24.753px" style="font-family:'ArialMT', 'Arial', sans-serif;font-size:34px;">Normal development</text>
    </g>
    <g transform="matrix(0,-1,1,0,2,6.36547)">
        <text x="-713.446px" y="24.753px" style="font-family:'ArialMT', 'Arial', sans-serif;font-size:34px;">Meiosis I trisomy</text>
    </g>
    <g transform="matrix(2.20845e-17,-1,1,-3.45432e-17,2,26.2547)">
        <text x="-1063.79px" y="24.753px" style="font-family:'ArialMT', 'Arial', sans-serif;font-size:34px;">Meiosis II trisomy</text>
    </g>
    <g transform="matrix(0,-1,1,0,2,-87.395)">
        <text x="-1513.65px" y="24.753px" style="font-family:'ArialMT', 'Arial', sans-serif;font-size:34px;">Mitotic trisomy</text>
    </g>
    <text x="141.357px" y="24.77px" style="font-family:'ArialMT', 'Arial', sans-serif;font-size:34px;">Oocyte <tspan x="503.832px " y="24.77px ">O</tspan>ocyte</text>
    <text x="866.455px" y="24.77px" style="font-family:'ArialMT', 'Arial', sans-serif;font-size:34px;">Oocyte</text>
    <text x="1231.37px" y="24.554px" style="font-family:'ArialMT', 'Arial', sans-serif;font-size:34px;">Zygote <tspan x="1586.16px " y="24.554px ">E</tspan>mbryo</text>
    <g transform="matrix(1,0,0,1,0,2)">
        <text x="1331.34px" y="1267.93px" style="font-family:'ArialMT', 'Arial', sans-serif;font-size:34px;fill:rgb(166,45,45);">nondisjunction</text>
    </g>
    <g transform="matrix(1,0,0,1,0,2)">
        <text x="636.657px" y="909.935px" style="font-family:'ArialMT', 'Arial', sans-serif;font-size:34px;fill:rgb(166,45,45);">nondisjunction</text>
    </g>
    <g transform="matrix(1,0,0,1,-2,0)">
        <text x="1750.23px" y="1601.72px" style="font-family:'ArialMT', 'Arial', sans-serif;font-size:34px;">additional</text>
        <text x="1750.23px" y="1644.61px" style="font-family:'ArialMT', 'Arial', sans-serif;font-size:34px;">complement</text>
        <text x="1750.23px" y="1687.5px" style="font-family:'ArialMT', 'Arial', sans-serif;font-size:34px;">of maternal</text>
        <text x="1750.23px" y="1730.39px" style="font-family:'ArialMT', 'Arial', sans-serif;font-size:34px;">(digynic)</text>
        <text x="1750.23px" y="1773.28px" style="font-family:'ArialMT', 'Arial', sans-serif;font-size:34px;">chromosomes</text>
        <text x="1750.23px" y="1986.66px" style="font-family:'ArialMT', 'Arial', sans-serif;font-size:34px;">single</text>
        <text x="1750.23px" y="2029.55px" style="font-family:'ArialMT', 'Arial', sans-serif;font-size:34px;">set</text>
        <text x="1805.06px" y="2029.55px" style="font-family:'ArialMT', 'Arial', sans-serif;font-size:34px;">of</text>
        <text x="1750.23px" y="2072.44px" style="font-family:'ArialMT', 'Arial', sans-serif;font-size:34px;">maternal</text>
        <text x="1750.23px" y="2115.33px" style="font-family:'ArialMT', 'Arial', sans-serif;font-size:34px;">chromosomes</text>
    </g>
    <g transform="matrix(0,-1,1,0,2.15857,-46.9935)">
        <text x="-1788.29px" y="24.753px" style="font-family:'ArialMT', 'Arial', sans-serif;font-size:34px;">T<tspan x="-1768.79px -1757.48px " y="24.753px 24.753px ">ri</tspan>ploidy</text>
    </g>
    <g transform="matrix(0,-1,1,0,2,-59.6678)">
        <text x="-2157.15px" y="24.753px" style="font-family:'ArialMT', 'Arial', sans-serif;font-size:34px;">Haploidy</text>
    </g>
    <g transform="matrix(1,0,0,1,7.18098,-1)">
        <text x="971.089px" y="1991.87px" style="font-family:'ArialMT', 'Arial', sans-serif;font-size:34px;fill:rgb(166,45,45);">gynogenesis</text>
    </g>
    <g>
        <text x="663.657px" y="1596.93px" style="font-family:'ArialMT', 'Arial', sans-serif;font-size:34px;fill:rgb(166,45,45);">retention o<tspan x="824.218px " y="1596.93px ">f</tspan></text>
        <text x="673.075px" y="1639.83px" style="font-family:'ArialMT', 'Arial', sans-serif;font-size:34px;fill:rgb(166,45,45);">polar body</text>
    </g>
    <g transform="matrix(1,0,0,-1,0,1893.38)">
        <path d="M1367.79,940.012L1367.79,953.363L1501.29,953.363L1501.29,965.758L1520.36,946.687L1501.29,927.617L1501.29,940.012L1367.79,940.012Z"/>
    </g>
    <g transform="matrix(1,0,0,-1,0,1177.41)">
        <path d="M1367.79,582.031L1367.79,595.379L1501.29,595.379L1501.29,607.777L1520.36,588.703L1501.29,569.633L1501.29,582.031L1367.79,582.031Z"/>
    </g>
    <g transform="matrix(1,0,0,-1,0,456.938)">
        <path d="M1367.79,221.793L1367.79,235.145L1501.29,235.145L1501.29,247.543L1520.36,228.465L1501.29,209.395L1501.29,221.793L1367.79,221.793Z"/>
    </g>
    <g transform="matrix(1,0,0,1,0,2108.62)">
        <rect x="1583.89" y="-1081.79" width="126.277" height="54.961" style="fill:none;stroke:black;stroke-width:6px;"/>
    </g>
    <g transform="matrix(1,0,0,1,0,2105.62)">
        <rect x="1583.89" y="-1080.29" width="126.277" height="54.961" style="fill:none;stroke:black;stroke-width:6px;"/>
    </g>
    <g transform="matrix(1,0,0,1,0,1215.93)">
        <rect x="1583.89" y="-669.269" width="126.277" height="122.609" style="fill:none;stroke:black;stroke-width:6px;"/>
    </g>
    <g transform="matrix(1,0,0,-1,0,3549.97)">
        <path d="M916.957,1801.37L916.957,1751.61C916.957,1749.75 919.273,1748.23 922.121,1748.23L932.441,1748.23C935.289,1748.23 937.602,1749.75 937.602,1751.61L937.602,1801.73" style="fill:rgb(104,162,183);"/>
    </g>
    <g transform="matrix(1,0,0,-1,0,3310.71)">
        <path d="M937.602,1562.48L937.602,1745.22C937.602,1747.09 935.289,1748.6 932.441,1748.6L922.121,1748.6C919.273,1748.6 916.957,1747.09 916.957,1745.22L916.957,1562.11" style="fill:rgb(239,106,92);"/>
    </g>
    <g transform="matrix(1,0,0,-1,0,3358.39)">
        <path d="M170.98,1797.08C168.203,1797.72 165.609,1796.77 165.188,1794.95L112.664,1568.09C112.242,1566.27 114.156,1564.28 116.93,1563.64L126.984,1561.31C129.758,1560.66 132.355,1561.62 132.777,1563.43L185.301,1790.3C185.723,1792.11 183.809,1794.11 181.035,1794.75L170.98,1797.08Z" style="fill:rgb(104,162,183);"/>
    </g>
    <g transform="matrix(1,0,0,-1,0,3358.39)">
        <path d="M130.973,1797.08C133.75,1797.72 136.344,1796.77 136.766,1794.95L189.289,1568.09C189.711,1566.27 187.797,1564.28 185.023,1563.64L174.969,1561.31C172.191,1560.66 169.598,1561.62 169.176,1563.43L116.652,1790.3C116.23,1792.11 118.145,1794.11 120.918,1794.75L130.973,1797.08Z" style="fill:rgb(104,162,183);"/>
    </g>
    <g transform="matrix(1,0,0,-1,0,3346.84)">
        <path d="M151.504,1686.47C158.703,1686.47 164.547,1680.62 164.547,1673.42C164.547,1666.22 158.703,1660.38 151.504,1660.38C144.305,1660.38 138.461,1666.22 138.461,1673.42C138.461,1680.62 144.305,1686.47 151.504,1686.47Z" style="fill:rgb(235,235,235);"/>
    </g>
    <g transform="matrix(1,0,0,-1,0,3432.16)">
        <path d="M1310.49,1802L1310.49,1633.16C1310.49,1631.3 1308.18,1629.78 1305.33,1629.78L1295.01,1629.78C1292.16,1629.78 1289.85,1631.3 1289.85,1633.16L1289.85,1802.38" style="fill:rgb(242,142,44);"/>
    </g>
    <g transform="matrix(1,0,0,-1,0,3192.91)">
        <path d="M1289.85,1563.13L1289.85,1626.78C1289.85,1628.64 1292.16,1630.16 1295.01,1630.16L1305.33,1630.16C1308.18,1630.16 1310.49,1628.64 1310.49,1626.78L1310.49,1562.76" style="fill:rgb(177,122,162);"/>
    </g>
    <g transform="matrix(1,0,0,-1,0,3358.39)">
        <path d="M267.109,1797.08C264.332,1797.72 261.738,1796.77 261.316,1794.95L208.793,1568.09C208.371,1566.27 210.285,1564.28 213.059,1563.64L223.113,1561.31C225.891,1560.66 228.484,1561.62 228.906,1563.43L281.43,1790.3C281.852,1792.11 279.938,1794.11 277.164,1794.75L267.109,1797.08Z" style="fill:rgb(239,106,92);"/>
    </g>
    <g transform="matrix(1,0,0,-1,0,3358.39)">
        <path d="M227.102,1797.08C229.879,1797.72 232.473,1796.77 232.895,1794.95L285.418,1568.09C285.84,1566.27 283.926,1564.28 281.152,1563.64L271.098,1561.31C268.324,1560.66 265.727,1561.62 265.305,1563.43L212.781,1790.3C212.359,1792.11 214.273,1794.11 217.047,1794.75L227.102,1797.08Z" style="fill:rgb(239,106,92);"/>
    </g>
    <g transform="matrix(1,0,0,-1,0,3346.84)">
        <path d="M247.633,1686.47C254.832,1686.47 260.676,1680.62 260.676,1673.42C260.676,1666.22 254.832,1660.38 247.633,1660.38C240.434,1660.38 234.59,1666.22 234.59,1673.42C234.59,1680.62 240.434,1686.47 247.633,1686.47Z" style="fill:rgb(235,235,235);"/>
    </g>
    <g transform="matrix(1,0,0,-1,0,3340.81)">
        <path d="M316.656,1663.73L316.656,1677.08L450.156,1677.08L450.156,1689.48L469.227,1670.41L450.156,1651.33L450.156,1663.73L316.656,1663.73Z"/>
    </g>
    <g transform="matrix(1,0,0,-1,0,3340.81)">
        <path d="M678.426,1663.73L678.426,1677.08L811.926,1677.08L811.926,1689.48L830.996,1670.41L811.926,1651.33L811.926,1663.73L678.426,1663.73Z" style="fill:rgb(166,45,45);"/>
    </g>
    <g transform="matrix(1,0,0,-1,0,3358.39)">
        <path d="M170.98,1797.08C168.203,1797.72 165.609,1796.77 165.188,1794.95L112.664,1568.09C112.242,1566.27 114.156,1564.28 116.93,1563.64L126.984,1561.31C129.758,1560.66 132.355,1561.62 132.777,1563.43L185.301,1790.3C185.723,1792.11 183.809,1794.11 181.035,1794.75L170.98,1797.08Z" style="fill:rgb(104,162,183);"/>
    </g>
    <g transform="matrix(1,0,0,-1,0,3346.84)">
        <path d="M151.504,1686.47C158.703,1686.47 164.547,1680.62 164.547,1673.42C164.547,1666.22 158.703,1660.38 151.504,1660.38C144.305,1660.38 138.461,1666.22 138.461,1673.42C138.461,1680.62 144.305,1686.47 151.504,1686.47Z" style="fill:rgb(235,235,235);"/>
    </g>
    <g transform="matrix(1,0,0,-1,0,3358.39)">
        <path d="M267.109,1797.08C264.332,1797.72 261.738,1796.77 261.316,1794.95L208.793,1568.09C208.371,1566.27 210.285,1564.28 213.059,1563.64L223.113,1561.31C225.891,1560.66 228.484,1561.62 228.906,1563.43L281.43,1790.3C281.852,1792.11 279.938,1794.11 277.164,1794.75L267.109,1797.08Z" style="fill:rgb(239,106,92);"/>
    </g>
    <g transform="matrix(1,0,0,-1,0,3346.84)">
        <path d="M247.633,1686.47C254.832,1686.47 260.676,1680.62 260.676,1673.42C260.676,1666.22 254.832,1660.38 247.633,1660.38C240.434,1660.38 234.59,1666.22 234.59,1673.42C234.59,1680.62 240.434,1686.47 247.633,1686.47Z" style="fill:rgb(235,235,235);"/>
    </g>
    <g transform="matrix(1,0,0,-1,0,3340.81)">
        <path d="M316.656,1663.73L316.656,1677.08L450.156,1677.08L450.156,1689.48L469.227,1670.41L450.156,1651.33L450.156,1663.73L316.656,1663.73Z"/>
    </g>
    <g transform="matrix(1,0,0,-1,0,3358.39)">
        <path d="M589.059,1797.08C586.285,1797.72 583.688,1796.77 583.266,1794.95L530.742,1568.09C530.32,1566.27 532.234,1564.28 535.008,1563.64L545.062,1561.31C547.84,1560.66 550.434,1561.62 550.855,1563.43L603.379,1790.3C603.801,1792.11 601.887,1794.11 599.113,1794.75L589.059,1797.08Z" style="fill:rgb(239,106,92);"/>
    </g>
    <g transform="matrix(1,0,0,-1,0,3539.7)">
        <path d="M595.016,1797.72L607.367,1749.41C607.789,1747.59 605.875,1745.59 603.102,1744.95L593.047,1742.62C590.273,1741.98 587.676,1742.93 587.254,1744.75L575.125,1793.26" style="fill:rgb(104,162,183);"/>
    </g>
    <g transform="matrix(1,0,0,-1,0,3307.1)">
        <path d="M575.125,1560.66L534.73,1739.02C534.309,1740.83 536.223,1742.83 539,1743.47L549.051,1745.8C551.828,1746.44 554.422,1745.49 554.844,1743.67L595.016,1565.12" style="fill:rgb(239,106,92);"/>
    </g>
    <g transform="matrix(1,0,0,-1,0,3346.84)">
        <path d="M569.582,1686.47C576.781,1686.47 582.629,1680.62 582.629,1673.42C582.629,1666.22 576.781,1660.38 569.582,1660.38C562.383,1660.38 556.539,1666.22 556.539,1673.42C556.539,1680.62 562.383,1686.47 569.582,1686.47Z" style="fill:rgb(235,235,235);"/>
    </g>
    <g transform="matrix(1,0,0,-1,0,3358.39)">
        <path d="M589.059,1797.08C586.285,1797.72 583.688,1796.77 583.266,1794.95L530.742,1568.09C530.32,1566.27 532.234,1564.28 535.008,1563.64L545.062,1561.31C547.84,1560.66 550.434,1561.62 550.855,1563.43L603.379,1790.3C603.801,1792.11 601.887,1794.11 599.113,1794.75L589.059,1797.08Z" style="fill:rgb(239,106,92);"/>
    </g>
    <g transform="matrix(1,0,0,-1,0,3539.7)">
        <path d="M595.016,1797.72L607.367,1749.41C607.789,1747.59 605.875,1745.59 603.102,1744.95L593.047,1742.62C590.273,1741.98 587.676,1742.93 587.254,1744.75L575.125,1793.26" style="fill:rgb(104,162,183);"/>
    </g>
    <g transform="matrix(1,0,0,-1,0,3346.84)">
        <path d="M569.582,1686.47C576.781,1686.47 582.629,1680.62 582.629,1673.42C582.629,1666.22 576.781,1660.38 569.582,1660.38C562.383,1660.38 556.539,1666.22 556.539,1673.42C556.539,1680.62 562.383,1686.47 569.582,1686.47Z" style="fill:rgb(235,235,235);"/>
    </g>
    <g transform="matrix(1,0,0,-1,0,3346.84)">
        <path d="M927.383,1686.47C934.582,1686.47 940.426,1680.62 940.426,1673.42C940.426,1666.22 934.582,1660.38 927.383,1660.38C920.184,1660.38 914.34,1666.22 914.34,1673.42C914.34,1680.62 920.184,1686.47 927.383,1686.47Z" style="fill:rgb(235,235,235);"/>
    </g>
    <g transform="matrix(1,0,0,-1,0,3549.97)">
        <path d="M1246.3,1801.37L1246.3,1751.61C1246.3,1749.75 1248.61,1748.23 1251.46,1748.23L1261.78,1748.23C1264.63,1748.23 1266.95,1749.75 1266.95,1751.61L1266.95,1801.73" style="fill:rgb(104,162,183);"/>
    </g>
    <g transform="matrix(1,0,0,-1,0,3310.71)">
        <path d="M1266.95,1562.48L1266.95,1745.22C1266.95,1747.09 1264.63,1748.6 1261.78,1748.6L1251.46,1748.6C1248.61,1748.6 1246.3,1747.09 1246.3,1745.22L1246.3,1562.11" style="fill:rgb(239,106,92);"/>
    </g>
    <g transform="matrix(1,0,0,-1,0,3346.84)">
        <path d="M1256.73,1686.47C1263.92,1686.47 1269.77,1680.62 1269.77,1673.42C1269.77,1666.22 1263.92,1660.38 1256.73,1660.38C1249.53,1660.38 1243.68,1666.22 1243.68,1673.42C1243.68,1680.62 1249.53,1686.47 1256.73,1686.47Z" style="fill:rgb(235,235,235);"/>
    </g>
    <g transform="matrix(1,0,0,-1,0,3346.84)">
        <path d="M1300.23,1686.47C1307.43,1686.47 1313.27,1680.62 1313.27,1673.42C1313.27,1666.22 1307.43,1660.38 1300.23,1660.38C1293.03,1660.38 1287.18,1666.22 1287.18,1673.42C1287.18,1680.62 1293.03,1686.47 1300.23,1686.47Z" style="fill:rgb(235,235,235);"/>
    </g>
    <g transform="matrix(1,0,0,-1,0,3340.81)">
        <path d="M994.332,1663.73L994.332,1677.08L1127.83,1677.08L1127.83,1689.48L1146.9,1670.41L1127.83,1651.33L1127.83,1663.73L994.332,1663.73Z"/>
    </g>
    <g transform="matrix(1,0,0,-1,0,3364.95)">
        <path d="M880.824,1802.29C877.973,1802.29 875.66,1800.77 875.66,1798.91L875.66,1566.04C875.66,1564.18 877.973,1562.66 880.824,1562.66L891.141,1562.66C893.992,1562.66 896.305,1564.18 896.305,1566.04L896.305,1798.91C896.305,1800.77 893.992,1802.29 891.141,1802.29L880.824,1802.29Z" style="fill:rgb(239,106,92);"/>
    </g>
    <g transform="matrix(1,0,0,-1,0,3347.29)">
        <path d="M885.844,1686.69C893.043,1686.69 898.887,1680.85 898.887,1673.65C898.887,1666.45 893.043,1660.6 885.844,1660.6C878.648,1660.6 872.801,1666.45 872.801,1673.65C872.801,1680.85 878.648,1686.69 885.844,1686.69Z" style="fill:rgb(235,235,235);"/>
    </g>
    <g transform="matrix(1,0,0,-1,0,3364.95)">
        <path d="M1207.92,1802.29C1205.07,1802.29 1202.75,1800.77 1202.75,1798.91L1202.75,1566.04C1202.75,1564.18 1205.07,1562.66 1207.92,1562.66L1218.24,1562.66C1221.08,1562.66 1223.4,1564.18 1223.4,1566.04L1223.4,1798.91C1223.4,1800.77 1221.08,1802.29 1218.24,1802.29L1207.92,1802.29Z" style="fill:rgb(239,106,92);"/>
    </g>
    <g transform="matrix(1,0,0,-1,0,3347.29)">
        <path d="M1212.94,1686.69C1220.14,1686.69 1225.98,1680.85 1225.98,1673.65C1225.98,1666.45 1220.14,1660.6 1212.94,1660.6C1205.74,1660.6 1199.89,1666.45 1199.89,1673.65C1199.89,1680.85 1205.74,1686.69 1212.94,1686.69Z" style="fill:rgb(235,235,235);"/>
    </g>
    <g transform="matrix(1,0,0,-1,0,3432.16)">
        <path d="M1701.28,1802L1701.28,1633.16C1701.28,1631.3 1698.96,1629.78 1696.11,1629.78L1685.79,1629.78C1682.94,1629.78 1680.63,1631.3 1680.63,1633.16L1680.63,1802.38" style="fill:rgb(242,142,44);"/>
    </g>
    <g transform="matrix(1,0,0,-1,0,3192.91)">
        <path d="M1680.63,1563.13L1680.63,1626.78C1680.63,1628.64 1682.94,1630.16 1685.79,1630.16L1696.11,1630.16C1698.96,1630.16 1701.28,1628.64 1701.28,1626.78L1701.28,1562.76" style="fill:rgb(177,122,162);"/>
    </g>
    <g transform="matrix(1,0,0,-1,0,3549.97)">
        <path d="M1634.93,1801.37L1634.93,1751.61C1634.93,1749.75 1637.24,1748.23 1640.09,1748.23L1650.41,1748.23C1653.26,1748.23 1655.57,1749.75 1655.57,1751.61L1655.57,1801.73" style="fill:rgb(104,162,183);"/>
    </g>
    <g transform="matrix(1,0,0,-1,0,3310.71)">
        <path d="M1655.57,1562.48L1655.57,1745.22C1655.57,1747.09 1653.26,1748.6 1650.41,1748.6L1640.09,1748.6C1637.24,1748.6 1634.93,1747.09 1634.93,1745.22L1634.93,1562.11" style="fill:rgb(239,106,92);"/>
    </g>
    <g transform="matrix(1,0,0,-1,0,3346.84)">
        <path d="M1645.35,1686.47C1652.55,1686.47 1658.39,1680.62 1658.39,1673.42C1658.39,1666.22 1652.55,1660.38 1645.35,1660.38C1638.15,1660.38 1632.31,1666.22 1632.31,1673.42C1632.31,1680.62 1638.15,1686.47 1645.35,1686.47Z" style="fill:rgb(235,235,235);"/>
    </g>
    <g transform="matrix(1,0,0,-1,0,3346.84)">
        <path d="M1691.01,1686.47C1698.21,1686.47 1704.06,1680.62 1704.06,1673.42C1704.06,1666.22 1698.21,1660.38 1691.01,1660.38C1683.81,1660.38 1677.97,1666.22 1677.97,1673.42C1677.97,1680.62 1683.81,1686.47 1691.01,1686.47Z" style="fill:rgb(235,235,235);"/>
    </g>
    <g transform="matrix(1,0,0,-1,0,3364.95)">
        <path d="M1596.54,1802.29C1593.69,1802.29 1591.38,1800.77 1591.38,1798.91L1591.38,1566.04C1591.38,1564.18 1593.69,1562.66 1596.54,1562.66L1606.86,1562.66C1609.71,1562.66 1612.02,1564.18 1612.02,1566.04L1612.02,1798.91C1612.02,1800.77 1609.71,1802.29 1606.86,1802.29L1596.54,1802.29Z" style="fill:rgb(239,106,92);"/>
    </g>
    <g transform="matrix(1,0,0,-1,0,3347.29)">
        <path d="M1601.56,1686.69C1608.76,1686.69 1614.61,1680.85 1614.61,1673.65C1614.61,1666.45 1608.76,1660.6 1601.56,1660.6C1594.36,1660.6 1588.52,1666.45 1588.52,1673.65C1588.52,1680.85 1594.36,1686.69 1601.56,1686.69Z" style="fill:rgb(235,235,235);"/>
    </g>
    <g transform="matrix(1,0,0,-1,0,4273.41)">
        <path d="M901.512,2163.09L901.512,2113.34C901.512,2111.47 903.828,2109.96 906.676,2109.96L916.996,2109.96C919.844,2109.96 922.156,2111.47 922.156,2113.34L922.156,2163.46" style="fill:rgb(104,162,183);"/>
    </g>
    <g transform="matrix(1,0,0,-1,0,4034.16)">
        <path d="M922.156,1924.2L922.156,2106.95C922.156,2108.81 919.844,2110.32 916.996,2110.32L906.676,2110.32C903.828,2110.32 901.512,2108.81 901.512,2106.95L901.512,1923.84" style="fill:rgb(239,106,92);"/>
    </g>
    <g transform="matrix(1,0,0,-1,0,4081.83)">
        <path d="M170.98,2158.8C168.203,2159.45 165.609,2158.49 165.188,2156.67L112.664,1929.81C112.242,1927.99 114.156,1926 116.93,1925.36L126.984,1923.03C129.758,1922.38 132.355,1923.34 132.777,1925.15L185.301,2152.02C185.723,2153.83 183.809,2155.83 181.035,2156.47L170.98,2158.8Z" style="fill:rgb(104,162,183);"/>
    </g>
    <g transform="matrix(1,0,0,-1,0,4081.83)">
        <path d="M130.973,2158.8C133.75,2159.45 136.344,2158.49 136.766,2156.67L189.289,1929.81C189.711,1927.99 187.797,1926 185.023,1925.36L174.969,1923.03C172.191,1922.38 169.598,1923.34 169.176,1925.15L116.652,2152.02C116.23,2153.83 118.145,2155.83 120.918,2156.47L130.973,2158.8Z" style="fill:rgb(104,162,183);"/>
    </g>
    <g transform="matrix(1,0,0,-1,0,4070.29)">
        <path d="M151.504,2048.19C158.703,2048.19 164.547,2042.35 164.547,2035.14C164.547,2027.95 158.703,2022.1 151.504,2022.1C144.305,2022.1 138.461,2027.95 138.461,2035.14C138.461,2042.35 144.305,2048.19 151.504,2048.19Z" style="fill:rgb(235,235,235);"/>
    </g>
    <g transform="matrix(1,0,0,-1,0,4081.83)">
        <path d="M267.109,2158.8C264.332,2159.45 261.738,2158.49 261.316,2156.67L208.793,1929.81C208.371,1927.99 210.285,1926 213.059,1925.36L223.113,1923.03C225.891,1922.38 228.484,1923.34 228.906,1925.15L281.43,2152.02C281.852,2153.83 279.938,2155.83 277.164,2156.47L267.109,2158.8Z" style="fill:rgb(239,106,92);"/>
    </g>
    <g transform="matrix(1,0,0,-1,0,4081.83)">
        <path d="M227.102,2158.8C229.879,2159.45 232.473,2158.49 232.895,2156.67L285.418,1929.81C285.84,1927.99 283.926,1926 281.152,1925.36L271.098,1923.03C268.324,1922.38 265.727,1923.34 265.305,1925.15L212.781,2152.02C212.359,2153.83 214.273,2155.83 217.047,2156.47L227.102,2158.8Z" style="fill:rgb(239,106,92);"/>
    </g>
    <g transform="matrix(1,0,0,-1,0,4070.29)">
        <path d="M247.633,2048.19C254.832,2048.19 260.676,2042.35 260.676,2035.14C260.676,2027.95 254.832,2022.1 247.633,2022.1C240.434,2022.1 234.59,2027.95 234.59,2035.14C234.59,2042.35 240.434,2048.19 247.633,2048.19Z" style="fill:rgb(235,235,235);"/>
    </g>
    <g transform="matrix(1,0,0,-1,0,4064.25)">
        <path d="M316.656,2025.45L316.656,2038.8L450.156,2038.8L450.156,2051.2L469.227,2032.12L450.156,2013.06L450.156,2025.45L316.656,2025.45Z"/>
    </g>
    <g transform="matrix(1,0,0,-1,0,4064.25)">
        <path d="M678.426,2025.45L678.426,2038.8L811.926,2038.8L811.926,2051.2L830.996,2032.12L811.926,2013.06L811.926,2025.45L678.426,2025.45Z"/>
    </g>
    <g transform="matrix(1,0,0,-1,0,4081.83)">
        <path d="M170.98,2158.8C168.203,2159.45 165.609,2158.49 165.188,2156.67L112.664,1929.81C112.242,1927.99 114.156,1926 116.93,1925.36L126.984,1923.03C129.758,1922.38 132.355,1923.34 132.777,1925.15L185.301,2152.02C185.723,2153.83 183.809,2155.83 181.035,2156.47L170.98,2158.8Z" style="fill:rgb(104,162,183);"/>
    </g>
    <g transform="matrix(1,0,0,-1,0,4070.29)">
        <path d="M151.504,2048.19C158.703,2048.19 164.547,2042.35 164.547,2035.14C164.547,2027.95 158.703,2022.1 151.504,2022.1C144.305,2022.1 138.461,2027.95 138.461,2035.14C138.461,2042.35 144.305,2048.19 151.504,2048.19Z" style="fill:rgb(235,235,235);"/>
    </g>
    <g transform="matrix(1,0,0,-1,0,4081.83)">
        <path d="M267.109,2158.8C264.332,2159.45 261.738,2158.49 261.316,2156.67L208.793,1929.81C208.371,1927.99 210.285,1926 213.059,1925.36L223.113,1923.03C225.891,1922.38 228.484,1923.34 228.906,1925.15L281.43,2152.02C281.852,2153.83 279.938,2155.83 277.164,2156.47L267.109,2158.8Z" style="fill:rgb(239,106,92);"/>
    </g>
    <g transform="matrix(1,0,0,-1,0,4070.29)">
        <path d="M247.633,2048.19C254.832,2048.19 260.676,2042.35 260.676,2035.14C260.676,2027.95 254.832,2022.1 247.633,2022.1C240.434,2022.1 234.59,2027.95 234.59,2035.14C234.59,2042.35 240.434,2048.19 247.633,2048.19Z" style="fill:rgb(235,235,235);"/>
    </g>
    <g transform="matrix(1,0,0,-1,0,4064.25)">
        <path d="M316.656,2025.45L316.656,2038.8L450.156,2038.8L450.156,2051.2L469.227,2032.12L450.156,2013.06L450.156,2025.45L316.656,2025.45Z"/>
    </g>
    <g transform="matrix(1,0,0,-1,0,4081.83)">
        <path d="M589.059,2158.8C586.285,2159.45 583.688,2158.49 583.266,2156.67L530.742,1929.81C530.32,1927.99 532.234,1926 535.008,1925.36L545.062,1923.03C547.84,1922.38 550.434,1923.34 550.855,1925.15L603.379,2152.02C603.801,2153.83 601.887,2155.83 599.113,2156.47L589.059,2158.8Z" style="fill:rgb(239,106,92);"/>
    </g>
    <g transform="matrix(1,0,0,-1,0,4263.15)">
        <path d="M595.016,2159.45L607.367,2111.13C607.789,2109.31 605.875,2107.32 603.102,2106.68L593.047,2104.35C590.273,2103.7 587.676,2104.66 587.254,2106.47L575.125,2154.98" style="fill:rgb(104,162,183);"/>
    </g>
    <g transform="matrix(1,0,0,-1,0,4030.55)">
        <path d="M575.125,1922.38L534.73,2100.74C534.309,2102.55 536.223,2104.55 539,2105.19L549.051,2107.52C551.828,2108.16 554.422,2107.21 554.844,2105.39L595.016,1926.84" style="fill:rgb(239,106,92);"/>
    </g>
    <g transform="matrix(1,0,0,-1,0,4070.29)">
        <path d="M569.582,2048.19C576.781,2048.19 582.629,2042.35 582.629,2035.14C582.629,2027.95 576.781,2022.1 569.582,2022.1C562.383,2022.1 556.539,2027.95 556.539,2035.14C556.539,2042.35 562.383,2048.19 569.582,2048.19Z" style="fill:rgb(235,235,235);"/>
    </g>
    <g transform="matrix(1,0,0,-1,0,4263.15)">
        <path d="M595.016,2159.45L607.367,2111.13C607.789,2109.31 605.875,2107.32 603.102,2106.68L593.047,2104.35C590.273,2103.7 587.676,2104.66 587.254,2106.47L575.125,2154.98" style="fill:rgb(104,162,183);"/>
    </g>
    <g transform="matrix(1,0,0,-1,0,4030.55)">
        <path d="M575.125,1922.38L534.73,2100.74C534.309,2102.55 536.223,2104.55 539,2105.19L549.051,2107.52C551.828,2108.16 554.422,2107.21 554.844,2105.39L595.016,1926.84" style="fill:rgb(239,106,92);"/>
    </g>
    <g transform="matrix(1,0,0,-1,0,4070.29)">
        <path d="M569.582,2048.19C576.781,2048.19 582.629,2042.35 582.629,2035.14C582.629,2027.95 576.781,2022.1 569.582,2022.1C562.383,2022.1 556.539,2027.95 556.539,2035.14C556.539,2042.35 562.383,2048.19 569.582,2048.19Z" style="fill:rgb(235,235,235);"/>
    </g>
    <g transform="matrix(1,0,0,-1,0,4070.29)">
        <path d="M911.938,2048.19C919.137,2048.19 924.98,2042.35 924.98,2035.14C924.98,2027.95 919.137,2022.1 911.938,2022.1C904.738,2022.1 898.895,2027.95 898.895,2035.14C898.895,2042.35 904.738,2048.19 911.938,2048.19Z" style="fill:rgb(235,235,235);"/>
    </g>
    <g transform="matrix(1,0,0,-1,0,4273.41)">
        <path d="M1244.94,2163.09L1244.94,2113.34C1244.94,2111.47 1247.26,2109.96 1250.11,2109.96L1260.43,2109.96C1263.28,2109.96 1265.59,2111.47 1265.59,2113.34L1265.59,2163.46" style="fill:rgb(104,162,183);"/>
    </g>
    <g transform="matrix(1,0,0,-1,0,4034.16)">
        <path d="M1265.59,1924.2L1265.59,2106.95C1265.59,2108.81 1263.28,2110.32 1260.43,2110.32L1250.11,2110.32C1247.26,2110.32 1244.94,2108.81 1244.94,2106.95L1244.94,1923.84" style="fill:rgb(239,106,92);"/>
    </g>
    <g transform="matrix(1,0,0,-1,0,4070.29)">
        <path d="M1255.37,2048.19C1262.57,2048.19 1268.41,2042.35 1268.41,2035.14C1268.41,2027.95 1262.57,2022.1 1255.37,2022.1C1248.17,2022.1 1242.33,2027.95 1242.33,2035.14C1242.33,2042.35 1248.17,2048.19 1255.37,2048.19Z" style="fill:rgb(235,235,235);"/>
    </g>
    <g transform="matrix(1,0,0,-1,0,4059.37)">
        <path d="M1354.58,2023.01L1354.58,2036.36L1488.08,2036.36L1488.08,2048.76L1507.15,2029.69L1488.08,2010.61L1488.08,2023.01L1354.58,2023.01Z"/>
    </g>
    <g transform="matrix(1,0,0,-1,0,4277.18)">
        <path d="M1639.21,2164.97L1639.21,2115.22C1639.21,2113.35 1641.53,2111.84 1644.37,2111.84L1654.69,2111.84C1657.54,2111.84 1659.86,2113.35 1659.86,2115.22L1659.86,2165.34" style="fill:rgb(104,162,183);"/>
    </g>
    <g transform="matrix(1,0,0,-1,0,4037.92)">
        <path d="M1659.86,1926.08L1659.86,2108.83C1659.86,2110.69 1657.54,2112.21 1654.69,2112.21L1644.37,2112.21C1641.53,2112.21 1639.21,2110.69 1639.21,2108.83L1639.21,1925.72" style="fill:rgb(239,106,92);"/>
    </g>
    <g transform="matrix(1,0,0,-1,0,4074.05)">
        <path d="M1649.64,2050.07C1656.83,2050.07 1662.68,2044.23 1662.68,2037.03C1662.68,2029.83 1656.83,2023.98 1649.64,2023.98C1642.44,2023.98 1636.59,2029.83 1636.59,2037.03C1636.59,2044.23 1642.44,2050.07 1649.64,2050.07Z" style="fill:rgb(235,235,235);"/>
    </g>
    <g transform="matrix(1,0,0,-1,0,3343.94)">
        <path d="M1367.79,1665.3L1367.79,1678.64L1501.29,1678.64L1501.29,1691.04L1520.36,1671.97L1501.29,1652.9L1501.29,1665.3L1367.79,1665.3Z"/>
    </g>
    <g transform="matrix(1,0,0,1,0,3557.62)">
        <rect x="1583.89" y="-1806.29" width="126.277" height="54.961" style="fill:none;stroke:black;stroke-width:6px;"/>
    </g>
    <g transform="matrix(1,0,0,1,0,3554.62)">
        <rect x="1583.89" y="-1804.79" width="126.277" height="54.961" style="fill:none;stroke:black;stroke-width:6px;"/>
    </g>
    <g transform="matrix(1,0,0,-1,0,4060.13)">
        <path d="M1007.54,2023.39L1007.54,2036.74L1141.04,2036.74L1141.04,2049.14L1160.11,2030.07L1141.04,2011L1141.04,2023.39L1007.54,2023.39Z" style="fill:rgb(166,45,45);"/>
    </g>
</svg>
